<?xml version="1.0" standalone="no"?>
<!DOCTYPE svg PUBLIC "-//W3C//DTD SVG 1.1//EN" "http://www.w3.org/Graphics/SVG/1.1/DTD/svg11.dtd" >
<svg xmlns="http://www.w3.org/2000/svg">
<metadata>Generated by IcoMoon</metadata>
<defs>
<font id="jcicon" horiz-adv-x="1024">
<font-face units-per-em="1024" ascent="960" descent="-64" />
<missing-glyph horiz-adv-x="1024" />
<glyph unicode="&#x20;" horiz-adv-x="512" d="" />
<glyph unicode="&#xe900;" glyph-name="alert" d="M540.16 896h-56.32l-419.84-784.64 28.16-47.36h838.4l28.16 47.36zM145.92 128l366.080 686.080 364.8-686.080zM480 576h64v-256h-64zM480 256h64v-64h-64z" />
<glyph unicode="&#xe901;" glyph-name="alipay" d="M511.73-61.951c282.035 0 510.696 228.67 510.696 510.716 0 282.035-228.67 510.696-510.696 510.696-282.035 0-510.706-228.67-510.706-510.706s228.67-510.706 510.706-510.706zM461.813 637.721v83.685h92.559v-83.685h188.896v-36.776l-188.896-1.279v-51.966l156.018-1.279s-2.808-29.171-22.595-82.216c-19.797-53.045-38.305-80.118-38.305-80.118l302.652-99.325s-10.853-28.411-23.944-53.305c-13.081-24.904-31.28-51.706-31.28-51.706l-289.241 137.12s-54.704-60.52-110.498-87.143c-55.784-26.623-119.882-43.222-189.206-26.812-69.405 16.339-118.612 60.7-110.118 142.607 8.484 81.916 96.007 110.128 168.020 110.128s208.683-46.669 208.683-46.669 11.482 25.723 22.655 55.154c11.173 29.421 14.371 53.045 14.371 53.045h-290.99v29.231h141.397v55.793l-176.255-1.279v36.776h176.075zM539.632 350.759s-86.623-102.913-188.707-102.913-123.519 48.898-123.519 84.075c0 35.187 21.196 73.352 108.069 78.908 86.883 5.496 204.156-60.071 204.156-60.071z" />
<glyph unicode="&#xe902;" glyph-name="artificial" d="M337.88 520.527c-109.824 0-198.873 88.694-198.873 198.105s89.049 198.105 198.892 198.105c109.824 0 198.853-88.694 198.853-198.105s-89.029-198.105-198.873-198.105zM337.88 599.769c65.91 0 119.335 53.209 119.335 118.863s-53.425 118.863-119.335 118.863c-65.89 0-119.316-53.209-119.316-118.863s53.425-118.863 119.335-118.863zM337.88 124.318c-175.734 0-318.188 43.717-318.188 155.037s142.454 201.551 318.188 201.551c175.734 0 318.208-90.23 318.208-201.551s-142.474-155.037-318.208-155.037zM337.88 203.56c156.967 0 238.671 35.249 238.671 75.796 0 58.092-101.396 122.309-238.671 122.309-137.255 0-238.631-64.197-238.631-122.309 0-40.566 81.684-75.796 238.631-75.796zM250.545-3.426c-12.813 6.674-21.411 19.855-21.411 35.044 0 21.752 17.633 39.385 39.385 39.385 7.078 0 13.719-1.867 19.459-5.135l-0.194 0.102c58.954-32.24 129.15-51.201 203.775-51.201 0.263 0 0.527 0 0.79 0.001h-0.041c239.261 0 433.231 193.969 433.231 433.231 0 206.296-145.309 382.818-344.753 424.192-18.045 3.843-31.384 19.647-31.384 38.567 0 21.754 17.635 39.389 39.389 39.389 2.834 0 5.599-0.299 8.263-0.868l-0.258 0.046c235.796-48.916 407.512-257.536 407.512-501.326 0-282.781-229.218-512-512-512-0.214 0-0.468-0.001-0.721-0.001-88.273 0-171.307 22.432-243.712 61.907l2.671-1.333zM792.615 352.414c-5.221-16.049-20.047-27.445-37.534-27.445-21.753 0-39.388 17.635-39.388 39.388 0 4.266 0.678 8.374 1.933 12.222l-0.079-0.279c7.326 22.961 11.067 47.065 11.067 71.7 0 86.173-46.474 164.175-120.162 205.863-11.664 6.98-19.352 19.547-19.352 33.909 0 21.752 17.633 39.385 39.385 39.385 6.867 0 13.324-1.758 18.945-4.848l-0.204 0.103c96.308-55.101 160.157-157.234 160.157-274.279 0-0.047 0-0.093 0-0.14v0.007c0-32.768-5.022-64.926-14.769-95.586z" />
<glyph unicode="&#xe903;" glyph-name="audio" d="M587 960h-427c-35.3 0-64-28.7-64-64v-896c0-35.3 28.7-64 64-64h704c35.3 0 64 28.7 64 64v619c0 33.9-13.5 66.5-37.5 90.5l-213 213c-24 24-56.6 37.5-90.5 37.5zM640 869.5l197.5-197.5h-133.5c-35.3 0-64 28.7-64 64v133.5zM832 0h-640c-17.7 0-32 14.3-32 32v832c0 17.7 14.3 32 32 32h384v-160c0-70.7 57.3-128 128-128h160v-576c0-17.7-14.3-32-32-32zM672 483.4v-289.1c0-42.9-38.7-77.7-86.5-77.7s-86.5 34.8-86.5 77.7c0 42.9 38.7 77.7 86.5 77.7 12.4 0 22.5 10.1 22.5 22.5v166.6c0 11-10.7 18.7-21.1 15.2l-143.8-48.5c-6.5-2.2-10.9-8.3-10.9-15.2l0.2-204.6h-0.4v-65.6c0-43.4-39.4-78.6-88-78.6s-88 35.2-88 78.6c0 43.4 39.4 78.6 88 78.6h1.8c12.4 0 22.5 10.1 22.5 22.5l-0.2 180.6c0 27.5 17.5 51.9 43.6 60.7l175.9 59.2c41.4 14 84.4-16.8 84.4-60.6z" />
<glyph unicode="&#xe904;" d="M49.12 436.8c0-256.26 207.74-464 464-464s464 207.74 464 464v0c0 256.26-207.74 464-464 464s-464-207.74-464-464v0z" />
<glyph unicode="&#xe905;" d="M552.48 546.24c7.91-7.556 18.652-12.206 30.48-12.206s22.57 4.65 30.497 12.222l-0.017-0.016c14.722 14.517 23.841 34.681 23.841 56.975 0 0.163 0 0.327-0.001 0.49v-0.025c0.001 0.137 0.001 0.3 0.001 0.463 0 20.838-7.632 39.894-20.252 54.525l0.091-0.108c-8.184 9.702-20.349 15.823-33.944 15.823-10.073 0-19.362-3.361-26.806-9.022l0.109 0.080c-35.040-25.44-37.12-88.48-4-119.2zM480 552c11.036 13.602 17.718 31.125 17.718 50.21 0 1.53-0.043 3.051-0.128 4.56l0.009-0.209c0.006 0.355 0.009 0.774 0.009 1.193 0 16.664-5.341 32.080-14.404 44.631l0.154-0.224c-8.125 13.483-22.688 22.362-39.326 22.362-15.636 0-29.44-7.842-37.694-19.808l-0.1-0.153c-10.257-13.891-16.416-31.352-16.416-50.251 0-20.818 7.473-39.89 19.884-54.68l-0.107 0.132c8.351-9.647 20.614-15.714 34.295-15.714 14.693 0 27.752 6.999 36.024 17.844l0.081 0.11zM722.72 537.92c-8.397 12.33-22.369 20.322-38.208 20.322-13.091 0-24.907-5.459-33.296-14.225l-0.016-0.017c-14.040-14.999-22.662-35.219-22.662-57.454 0-12.825 2.869-24.981 8-35.859l-0.218 0.513c7.988-16.955 24.934-28.48 44.573-28.48 14.576 0 27.669 6.349 36.665 16.432l0.042 0.048c12.089 13.022 19.51 30.523 19.52 49.758v0.002c0.013 0.551 0.020 1.2 0.020 1.851 0 17.579-5.39 33.9-14.607 47.399l0.187-0.29zM389.92 452c4.576 9.021 7.257 19.669 7.257 30.944 0 0.99-0.021 1.976-0.062 2.957l0.005-0.14c0.075 1.286 0.118 2.791 0.118 4.306 0 21.448-8.595 40.889-22.529 55.066l0.011-0.011c-8.229 8.415-19.697 13.633-32.384 13.633-13.531 0-25.676-5.935-33.973-15.344l-0.043-0.049c-11.949-13.896-19.225-32.11-19.225-52.023 0-18.301 6.145-35.168 16.485-48.647l-0.14 0.19c9.186-11.874 23.439-19.445 39.46-19.445 19.784 0 36.871 11.545 44.891 28.266l0.129 0.299zM665.76 368c-32.103 20.137-58.79 45.855-79.411 76.046l-0.589 0.914c-5.322 8.313-10.59 15.464-16.273 22.255l0.273-0.335c-13.47 17.402-34.362 28.497-57.847 28.497-10.132 0-19.781-2.065-28.55-5.798l0.477 0.18c-16.469-7.193-29.704-19.241-38.192-34.319l-0.208-0.401c-21.485-34.172-49.225-62.422-81.85-83.845l-1.030-0.635c-10.108-6.949-18.839-14.867-26.4-23.806l-0.16-0.194c-12.943-15.448-20.804-35.537-20.804-57.463 0-41.091 27.611-75.733 65.292-86.385l0.632-0.153c8.678-1.737 18.654-2.73 28.863-2.73 16.254 0 31.92 2.519 46.628 7.189l-1.090-0.299c16.292 4.239 34.995 6.673 54.266 6.673 17.057 0 33.668-1.906 49.632-5.518l-1.499 0.285c14.723-3.727 32.389-6.723 50.444-8.377l1.396-0.103c3.222-0.407 6.949-0.639 10.731-0.639 49.42 0 89.578 39.656 90.388 88.883l0.001 0.076c-0.212 5.141-0.67 9.943-1.371 14.665l0.091-0.745c-5.192 27.805-21.231 51.13-43.466 65.848l-0.374 0.232zM486.24 242.56h-54.4c-32.238 1.143-57.938 27.553-57.938 59.965 0 0.519 0.007 1.036 0.020 1.552l-0.002-0.076c-0.017 0.525-0.027 1.142-0.027 1.761 0 32.15 25.98 58.233 58.091 58.399h17.456c12.32 0 12.32 0 12.32 12v34.4c0 6.080 2.4 8.32 8.32 8.16 32-0.8 25.6 4.64 26.080-24.64v-141.28c0.64-7.2-1.76-10.4-9.92-10.24zM620.8 242.56h-66.56c-0.665-0.051-1.44-0.080-2.222-0.080-17.055 0-30.88 13.825-30.88 30.88 0 1.042 0.052 2.073 0.153 3.088l-0.010-0.128v80c0 7.52 1.76 11.040 10.24 10.88 27.36-0.96 23.040 3.68 23.36-23.2v-55.36c0-10.56 2.4-12.8 12.96-12.96h20c6.56 0 9.12 2.72 9.12 9.28v72c0 7.52 2.080 11.040 9.92 10.24 2.228-0.191 4.821-0.3 7.44-0.3s5.212 0.109 7.776 0.322l-0.336-0.022c7.040 0 9.12-2.72 8.96-9.28v-105.44c-0.32-6.72-2.72-9.76-9.92-9.6z" />
<glyph unicode="&#xe906;" d="M454.72 332.64h-19.2c-0.239 0.007-0.52 0.012-0.802 0.012-15.090 0-27.344-12.146-27.518-27.195v-0.016c-0.060-0.689-0.094-1.49-0.094-2.299 0-14.91 11.588-27.113 26.248-28.096l0.086-0.005h21.76c4.64 0 6.88 2.080 6.88 7.040v43.68c0 7.2-2.080 6.88-7.36 6.88z" />
<glyph unicode="&#xe907;" glyph-name="ban" d="M791.040 789.333l62.293-58.24-577.707-624.427-62.293 58.24zM512-21.333c-259.2 0-469.333 210.133-469.333 469.333s210.133 469.333 469.333 469.333 469.333-210.133 469.333-469.333-210.133-469.333-469.333-469.333zM512 64c212.077 0 384 171.923 384 384s-171.923 384-384 384v0c-212.077 0-384-171.923-384-384s171.923-384 384-384v0z" />
<glyph unicode="&#xe908;" glyph-name="barcode" d="M0 704h64v-512h-64zM128 704h64v-512h-64zM224 704h32v-512h-32zM448 704h32v-512h-32zM592 704h32v-512h-32zM720 704h32v-512h-32zM912 704h32v-512h-32zM336 704h64v-512h-64zM784 704h64v-512h-64zM640 704h64v-512h-64zM960 704h64v-512h-64z" />
<glyph unicode="&#xe909;" glyph-name="bluetooth" d="M512 896.006c41.896 0 79.592-4.1 112.089-12.099 29.397-7.399 57.494-20.598 83.492-39.196 25.597-18.398 46.195-41.996 63.094-72.193 18.098-32.497 32.997-75.793 44.096-128.687 11.499-55.295 17.298-121.188 17.298-195.881s-5.799-140.586-17.298-195.881c-10.999-52.895-25.797-96.091-43.896-128.287v-0.2c-16.698-29.797-37.996-54.095-63.194-72.293-25.997-18.798-53.995-31.897-83.292-39.196h-0.2c-31.897-7.999-69.593-11.999-111.989-11.999-41.896 0-79.592 4.1-112.089 12.099-29.397 7.399-57.494 20.598-83.492 39.196-25.598 18.398-46.195 41.996-63.094 72.193-18.298 32.597-33.097 75.793-43.996 128.487-11.699 55.395-17.498 121.288-17.498 195.881s5.799 140.586 17.298 195.881c10.999 52.895 25.797 96.091 43.896 128.287 17.098 30.397 37.796 54.095 63.194 72.393 26.497 18.898 54.495 32.097 83.392 39.196h0.2c32.297 8.199 69.993 12.299 111.989 12.299zM512 960c-47.595 0-90.191-4.7-127.488-14.099-37.296-9.199-72.493-25.897-105.39-49.395-32.797-23.698-59.994-54.595-81.592-92.891s-38.496-87.191-50.895-146.786c-12.399-59.594-18.598-129.287-18.598-208.88 0-79.692 6.199-149.185 18.598-208.88 12.399-59.494 29.397-108.489 50.895-146.786 21.498-38.396 48.695-69.193 81.592-92.891 32.797-23.498 68.093-40.096 105.39-49.395 37.296-9.199 79.892-13.999 127.488-13.999s90.191 4.6 127.488 13.999c37.296 9.199 72.593 25.697 105.39 49.395s60.094 54.595 81.592 92.891c21.598 38.296 38.496 87.191 50.895 146.786s18.598 129.287 18.598 208.88c0 79.692-6.199 149.185-18.598 208.88-12.499 59.594-29.397 108.489-50.895 146.886s-48.695 69.293-81.592 92.891c-32.797 23.598-67.993 40.096-105.39 49.395-37.296 9.299-79.892 13.999-127.488 13.999zM684.883 578.337c24.498 24.898 24.498 64.894-0.1 89.791l-178.483 180.782c-10.099 10.099-27.297 2.9-27.297-11.299v-312.769l-124.588 124.688c-3.1 3.1-8.199 3.1-11.299 0l-33.897-33.897c-3.1-3.1-3.1-8.199 0-11.299l145.386-145.386c6.199-6.199 6.199-16.398 0-22.598l-145.486-145.486c-3.1-3.1-3.1-8.199 0-11.299l33.897-33.897c3.1-3.1 8.199-3.1 11.299 0l124.688 124.488v-312.769c0-14.299 17.198-21.398 27.297-11.299l180.882 180.882c23.398 25.098 22.898 64.094-1.1 88.491l-118.688 120.888c-6.099 6.199-6.099 16.198 0 22.398l117.489 119.588zM542.997 721.723l84.692-87.391c5.999-6.199 5.999-16.098 0-22.298l-84.692-87.291v196.981zM627.689 260.768l-84.692-87.391v196.981l84.692-87.391c6.099-6.199 6.099-15.998 0-22.198z" />
<glyph unicode="&#xe90a;" glyph-name="brash" d="M292.71 574.99c-6.46 8.27-18.4 9.73-26.67 3.27s-9.73-18.4-3.27-26.67l53.76-68.76c3.75-4.79 9.33-7.3 14.98-7.3 4.090 0 8.22 1.32 11.69 4.030 8.27 6.46 9.73 18.4 3.27 26.67l-53.76 68.76zM364.14 621.73c-6.3 8.39-18.21 10.090-26.6 3.8-8.39-6.3-10.090-18.21-3.8-26.6l52.31-69.72c3.73-4.98 9.44-7.6 15.21-7.6 3.97 0 7.97 1.24 11.39 3.8 8.39 6.3 10.090 18.21 3.8 26.6l-52.31 69.72zM437.59 668.82c-5.76 8.77-17.54 11.22-26.31 5.46s-11.22-17.54-5.46-26.31l47.73-72.75c3.65-5.56 9.72-8.58 15.9-8.58 3.58 0 7.19 1.010 10.41 3.12 8.77 5.76 11.22 17.54 5.46 26.31l-47.73 72.75zM509.77 715.57c-5.44 8.97-17.12 11.83-26.1 6.39-8.97-5.44-11.84-17.13-6.39-26.1l45.15-74.45c3.57-5.89 9.84-9.15 16.26-9.15 3.36 0 6.76 0.89 9.83 2.76 8.97 5.44 11.84 17.13 6.39 26.1l-45.14 74.45zM624.28 686.010l-42.13 76.44c-5.060 9.19-16.62 12.54-25.81 7.47-9.19-5.060-12.53-16.62-7.47-25.81l42.13-76.45c3.46-6.28 9.96-9.83 16.66-9.83 3.1 0 6.25 0.76 9.15 2.36 9.19 5.070 12.53 16.63 7.47 25.82zM885.1 101.19l-196.43 291.82 77.51 51.19c26.070 17.22 37.68 49.74 28.88 80.93l-23.58 83.55c-0.508 2.824-1.419 5.347-2.685 7.649l0.065-0.129-140.11 259.6c-4.312 7.874-12.541 13.124-21.997 13.124-5.133 0-9.905-1.547-13.874-4.201l0.091 0.057-447.1-295.26c-5.85-3.87-9.81-10.010-10.91-16.94s0.76-14 5.13-19.49l183.73-230.79c1.69-2.13 3.67-3.9 5.83-5.32l67.64-54.53c13.84-11.16 30.46-16.83 46.96-16.83 13.57 0 27.050 3.84 38.82 11.61l79.010 52.18 196.65-291.32c4.82-7.15 12.71-11.020 20.74-11.020 4.67 0 9.39 1.31 13.6 4.040l84.92 55.15c5.62 3.65 9.54 9.4 10.88 15.97s-0.030 13.4-3.77 18.96zM597.73 828.010l116.080-215.060-365.38-241.29-152.21 191.2 401.51 265.15zM455.51 298.96c-7.84-5.18-18.62-4.2-26.84 2.42l-42.86 34.56 346.18 228.61 14.95-52.99c2.87-10.16-0.48-20.46-8.31-25.63l-283.12-186.97zM786.42 66.42l-182.23 269.97 43 28.69 182.23-270.73-43-27.93z" />
<glyph unicode="&#xe90b;" glyph-name="bubble" d="M52.736 948.736c20.992 0 39.424-15.36 43.008-36.352l0.512-7.168v-877.568h881.664c20.992 0 39.424-15.36 43.008-36.352l0.512-7.168c0-20.992-15.36-39.424-36.352-43.008h-975.872v964.608c0 23.552 19.456 43.008 43.52 43.008zM547.84 103.936c-61.952 0-112.64 50.688-112.64 112.64s50.688 112.64 112.64 112.64 112.64-50.688 112.64-112.64-50.688-112.64-112.64-112.64zM547.84 277.504c-33.792 0-61.44-27.648-61.44-61.44s27.648-61.44 61.44-61.44 61.44 27.648 61.44 61.44c-0.512 33.792-27.648 61.44-61.44 61.44v0zM311.296 259.072c-60.416 0-109.568 49.152-109.568 109.568s49.152 109.568 109.568 109.568c60.416 0 109.568-49.152 109.568-109.568s-49.152-109.568-109.568-109.568zM311.296 427.52c-32.256 0-58.368-26.112-58.368-58.368s26.112-58.368 58.368-58.368c32.256 0 58.368 26.112 58.368 58.368s-26.112 58.368-58.368 58.368zM659.968 384c-23.040 0-45.056 8.704-61.952 24.064-37.888 34.304-40.96 93.184-6.656 131.584 17.408 19.456 43.008 30.72 69.12 30.72 23.040 0 45.056-8.704 61.952-24.064 18.432-16.896 29.184-39.424 30.72-64s-7.168-48.64-24.064-67.072c-16.896-18.432-39.424-29.184-64-30.72-1.536-0.512-3.584-0.512-5.12-0.512zM659.968 518.656c-12.288 0-23.040-4.608-31.232-13.824-15.36-17.408-13.824-43.52 3.072-58.88 7.68-6.656 17.408-10.752 27.136-10.752h2.56c11.264 0.512 21.504 5.632 28.672 13.824 7.68 8.192 11.264 18.944 10.752 30.208s-5.632 21.504-13.824 28.672c-7.168 7.168-16.896 10.752-27.136 10.752zM837.632 539.136c-18.944 0-37.376 7.168-51.2 19.968-31.232 28.16-33.792 76.8-5.632 108.544 14.336 15.872 35.328 25.088 56.832 25.088 18.944 0 37.376-7.168 51.2-19.968 31.232-28.672 33.792-76.8 5.632-108.544-14.336-15.872-35.328-25.088-56.832-25.088zM837.632 641.536c-7.168 0-14.336-3.072-18.944-8.192-9.216-10.24-8.704-26.624 2.048-35.84 4.608-4.096 10.752-6.656 16.896-6.656 7.168 0 14.336 3.072 18.944 8.192s6.656 11.776 6.656 18.432c-0.512 6.656-3.072 13.312-8.192 17.408s-10.752 6.656-17.408 6.656zM355.328 575.488c-49.152 0-89.088 39.936-89.088 89.088s39.936 89.088 89.088 89.088c49.152 0 89.088-39.936 89.088-89.088s-39.936-89.088-89.088-89.088zM355.328 702.464c-20.992 0-37.888-16.896-37.888-37.888s16.896-37.888 37.888-37.888 37.888 16.896 37.888 37.888-16.896 37.888-37.888 37.888zM766.464 722.432c-17.408 0-33.792 6.144-46.080 17.92-28.16 25.6-30.208 69.12-5.12 97.28 13.312 14.336 31.744 22.528 51.2 22.528 16.896 0 33.28-6.144 46.080-17.408 13.824-12.288 21.504-29.184 22.528-47.616s-5.632-36.352-17.92-49.664c-12.288-14.848-30.72-23.040-50.688-23.040zM766.464 808.448c-5.12 0-9.728-2.048-13.312-5.632-3.072-3.584-4.608-8.192-4.608-12.8s2.048-9.216 5.632-12.288c3.072-3.072 7.168-4.608 11.776-4.608 5.12 0 9.728 2.048 13.312 5.632 3.072 3.584 4.608 7.68 4.608 12.8-0.512 4.608-2.56 9.216-6.144 12.288-2.56 3.072-6.656 4.608-11.264 4.608z" />
<glyph unicode="&#xe90c;" glyph-name="bug1" d="M696.128 672v37.248c0 103.14-83.612 186.752-186.752 186.752s-186.752-83.612-186.752-186.752v0-37.248h-53.312l-106.432 106.944-37.952-37.76 103.104-103.616-1.216-3.136c-20.388-53.203-32.196-114.744-32.196-179.042 0-0.753 0.002-1.506 0.005-2.258v0.117c0-12.544 0.448-24.96 1.28-37.12l0.192-2.88h-132.096v-53.504h138.816l0.384-2.176c11.008-60.224 32.256-115.328 61.056-161.984l2.176-3.52-125.632-125.632 37.888-37.888 119.744 119.808 3.712-4.224c55.552-63.488 128.128-101.696 207.232-101.696 77.952 0 149.504 37.056 204.736 98.816l3.648 4.096 122.24-122.88 37.952 37.824-127.744 128.384 2.24 3.584c29.888 47.36 51.84 103.616 63.104 165.312l0.384 2.176h138.944v53.504h-132.16l0.192 2.816c0.815 11.105 1.279 24.058 1.28 37.119v0.001c0.003 0.626 0.004 1.366 0.004 2.106 0 65.157-12.141 127.478-34.283 184.825l1.191-3.507-1.216 3.2 100.48 100.48-37.888 37.76-106.112-106.048h-50.24zM376.128 672v37.248c0 73.591 59.657 133.248 133.248 133.248s133.248-59.657 133.248-133.248v0-37.248h-266.432zM740.736 618.432l1.28-3.392c18.112-48.192 28.608-103.040 28.608-161.792 0-103.040-32.192-194.176-81.536-258.368-49.28-64.064-113.344-98.88-179.712-98.88-66.304 0-130.368 34.816-179.648 98.88-49.408 64.192-81.6 155.328-81.6 258.368 0 58.752 10.496 113.6 28.672 161.792l1.28 3.392h462.656z" />
<glyph unicode="&#xe90d;" glyph-name="cart-empty" d="M331.505 169.993q19.38 0 36.721-7.14t30.090-19.89 20.4-30.090 7.65-36.721-7.65-36.721-20.4-30.090-30.090-20.4-36.721-7.65q-20.4 0-37.741 7.65t-30.090 20.4-20.4 30.090-7.65 36.721 7.65 36.721 20.4 30.090 30.090 19.89 37.741 7.14zM755.832 167.953q19.38 0 37.231-7.14t30.6-19.89 20.4-30.090 7.65-36.721-7.65-36.721-20.4-30.090-30.6-20.4-37.231-7.65-36.721 7.65-30.090 20.4-20.4 30.090-7.65 36.721 7.65 36.721 20.4 30.090 30.090 19.89 36.721 7.14zM927.194 747.321q28.56 0 44.371-7.65t22.44-18.87 6.12-23.97-3.57-21.93-13.26-37.741-21.93-62.731-23.46-67.831-18.87-53.041q-13.26-40.801-33.151-56.611t-49.471-15.81h-535.508l14.28-91.801h515.108q48.961 0 48.961-41.821 0-20.4-9.69-35.701t-38.251-14.28h-534.488q-20.4 0-34.171 9.18t-22.95 23.97-14.79 32.13-8.67 32.64q-1.020 6.12-5.61 29.58t-11.22 58.651-14.79 78.541-16.32 87.211q-19.38 103.022-43.861 229.504h-76.501q-15.3 0-25.5 7.65t-16.83 18.36-9.18 22.95-2.55 22.44q0 20.4 13.77 33.661t37.231 12.24h103.022q20.4 0 32.64-6.12t19.38-15.3 10.2-18.87 5.1-16.83q2.040-8.16 4.080-22.95t4.080-30.090q3.060-18.36 6.12-38.761h697.691zM889.454 656.54l-638.53 2.040 35.701-184.623 533.468-1.020z" />
<glyph unicode="&#xe90e;" glyph-name="cart-full" d="M346.112 153.088q19.456 0 36.864-7.168t30.208-19.968 20.48-30.208 7.68-36.864-7.68-36.864-20.48-30.208-30.208-20.48-36.864-7.68q-20.48 0-37.888 7.68t-30.208 20.48-20.48 30.208-7.68 36.864 7.68 36.864 20.48 30.208 30.208 19.968 37.888 7.168zM772.096 151.040q19.456 0 37.376-7.168t30.72-19.968 20.48-30.208 7.68-36.864-7.68-36.864-20.48-30.208-30.72-20.48-37.376-7.68-36.864 7.68-30.208 20.48-20.48 30.208-7.68 36.864 7.68 36.864 20.48 30.208 30.208 19.968 36.864 7.168zM944.128 732.672q28.672 0 44.544-7.68t22.528-18.944 6.144-24.064-3.584-22.016-13.312-37.888-22.016-62.976-23.552-68.096-18.944-53.248q-13.312-40.96-33.28-56.832t-49.664-15.872h-537.6l14.336-92.16h517.12q49.152 0 49.152-41.984 0-20.48-9.728-35.328t-38.4-14.848h-536.576q-20.48 0-34.304 9.216t-23.040 24.064-14.848 32.256-8.704 32.768q-1.024 6.144-5.632 29.696t-11.264 58.88-14.848 78.848-16.384 87.552q-19.456 103.424-44.032 230.4h-76.8q-15.36 0-25.6 7.68t-16.896 18.432-9.216 23.040-2.56 22.528q0 20.48 13.824 33.792t37.376 13.312h103.424q20.48 0 32.768-6.144t19.456-15.36 10.24-19.456 5.12-17.408q2.048-8.192 4.096-23.040t4.096-30.208q3.072-18.432 6.144-38.912h700.416zM867.328 765.44h-374.784l135.168 135.168q23.552 23.552 51.712 24.064t51.712-23.040z" />
<glyph unicode="&#xe90f;" glyph-name="certificate" d="M604.1 678.2h-184v103c0 40.3 32.7 73 73 73h38c40.3 0 73-32.7 73-73v-103zM476.1 734.2h72v47c0 9.4-7.6 17-17 17h-38c-9.4 0-17-7.6-17-17v-47zM917 41.8h-810c-40.3 0-73 32.7-73 73v546.3c0 40.3 32.7 73 73 73h810c40.3 0 73-32.7 73-73v-546.3c0-40.2-32.7-73-73-73zM107 678.1c-9.4 0-17-7.6-17-17v-546.3c0-9.4 7.6-17 17-17h810c9.4 0 17 7.6 17 17v546.3c0 9.4-7.6 17-17 17h-810zM608.3 470.4h255.7v-56h-255.7zM608.3 314h255.7v-56h-255.7zM342 317.2c-70.6 0-128 57.4-128 128s57.4 128 128 128 128-57.4 128-128-57.4-128-128-128zM342 517.2c-39.7 0-72-32.3-72-72s32.3-72 72-72 72 32.3 72 72-32.3 72-72 72zM520 195.2h-56c0 67.3-54.7 122-122 122s-122-54.7-122-122h-56c0 98.1 79.9 178 178 178s178-79.8 178-178z" />
<glyph unicode="&#xe910;" glyph-name="chart-bar" d="M149.333 160h128c29.867 0 53.333 23.467 53.333 53.333v213.333c0 29.867-23.467 53.333-53.333 53.333h-128c-29.867 0-53.333-23.467-53.333-53.333v-213.333c0-29.867 23.467-53.333 53.333-53.333zM160 416h106.667v-192h-106.667v192zM448 160h128c29.867 0 53.333 23.467 53.333 53.333v597.333c0 29.867-23.467 53.333-53.333 53.333h-128c-29.867 0-53.333-23.467-53.333-53.333v-597.333c0-29.867 23.467-53.333 53.333-53.333zM458.667 800h106.667v-576h-106.667v576zM874.667 650.667h-128c-29.867 0-53.333-23.467-53.333-53.333v-384c0-29.867 23.467-53.333 53.333-53.333h128c29.867 0 53.333 23.467 53.333 53.333v384c0 29.867-23.467 53.333-53.333 53.333zM864 224h-106.667v362.667h106.667v-362.667zM896 106.667h-768c-17.067 0-32-14.933-32-32s14.933-32 32-32h768c17.067 0 32 14.933 32 32s-14.933 32-32 32z" />
<glyph unicode="&#xe911;" glyph-name="chart-pie" d="M887.467 317.867c-17.067 6.4-34.133 0-42.667-17.067-64-151.467-221.867-243.2-386.133-221.867s-294.4 149.333-315.733 313.6c-23.467 162.133 66.133 322.133 215.467 388.267 17.067 6.4 23.467 25.6 17.067 42.667s-25.6 23.467-42.667 17.067c-177.067-78.933-281.6-266.667-253.867-458.667s179.2-343.467 371.2-369.067c19.2-2.133 36.267-4.267 55.467-4.267 170.667 0 330.667 102.4 398.933 264.533 6.4 17.067-2.133 36.267-17.067 44.8zM814.933 750.933c-87.467 87.467-202.667 134.4-324.267 134.4-17.067 0-32-14.933-32-32v-426.667c0-17.067 14.933-32 32-32h426.667c17.067 0 32 14.933 32 32 0 121.6-46.933 236.8-134.4 324.267zM522.667 458.667v360.533c93.867-6.4 179.2-46.933 247.467-115.2 66.133-66.133 106.667-153.6 115.2-247.467h-362.667z" />
<glyph unicode="&#xe912;" glyph-name="check" d="M512.5 884.8s-121.8 0.9-184.4-96c-3.4-5.2-6.6-10.7-9.6-16.5-2.4-4.7-4.7-9.6-6.9-14.6-1.5-3.7-3-7.4-4.4-11.3-1-2.8-2-5.6-2.9-8.6-0.8-2.7-3.7-18.8-4-28.3-0.1-3.6-0.2-7.5-0.3-11.4-0.1-4 0.4-10.2 1.3-17.3 2.6-21.5 8.7-52.4 13.4-63.7 3.9-9.4 8.4-18.7 13.6-27.9 16.1-28.5 38.4-55.5 67.2-77.4 22.3-17.1 36.6-35.5 44.5-50.1 9.4-23.8 7.9-44.9 5.8-54.1-4.6-20.1-16.5-34.8-39.8-50.9-9.2-6.3-38-17.7-88.1-20.1h-70c-22.9 0-40.8-4.9-54.9-13.9-5.2-3.3-10.6-7.1-15.8-11.5-6.2-5.1-12-10.9-16.8-17.4-2.8-4.6-5-9.3-6.6-13.9-2.8-7.9-4.5-37.4-4.5-40.2v-21.4h363.1v666.5zM512.3 884.8s121.7 0.9 184.2-96c3.4-5.2 6.6-10.7 9.6-16.5 2.4-4.7 4.7-9.6 6.8-14.6 1.5-3.7 3-7.4 4.4-11.3 1-2.8 2-5.6 2.9-8.6 0.8-2.7 3.7-18.8 4-28.3 0.1-3.6 0.2-7.5 0.3-11.4 0.1-4-0.4-10.2-1.3-17.3-2.6-21.5-8.7-52.4-13.4-63.7-3.9-9.4-8.4-18.7-13.6-27.9-16.1-28.5-38.3-55.5-67.2-77.4-22.3-17.1-36.5-35.5-44.5-50.1-9.4-23.8-7.8-44.9-5.8-54.1 4.6-20.1 16.5-34.8 39.7-50.9 9.2-6.3 38-17.7 88-20.1h69.9c22.9 0 40.8-4.9 54.8-13.9 5.2-3.3 10.6-7.1 15.8-11.5 6.2-5.1 12-10.9 16.8-17.4 2.8-4.6 5-9.3 6.6-13.9 2.8-7.9 4.5-37.4 4.5-40.2v-21.4h-362.5v666.5zM850.2 60.5h-675.9c-13.7 0-24.9 11.2-24.9 24.9v67.2c0 13.7 11.2 24.9 24.9 24.9h675.8c13.7 0 24.9-11.2 24.9-24.9v-67.2c0.1-13.7-11.1-24.9-24.8-24.9z" />
<glyph unicode="&#xe913;" d="M123.648 781.653c237.995 276.949 679.339 222.293 844.288-101.333h-396.501c-71.424 0-117.547 1.621-167.509-24.661-58.709-30.933-102.997-88.235-118.485-155.52l-161.792 281.472z" />
<glyph unicode="&#xe914;" d="M341.675 448c0-93.867 76.331-170.24 170.155-170.24 93.867 0 170.155 76.373 170.155 170.24s-76.331 170.24-170.155 170.24c-93.867 0-170.155-76.373-170.155-170.24z" />
<glyph unicode="&#xe915;" d="M577.877 225.152c-95.531-28.373-207.275 3.115-268.501 108.8-46.763 80.64-170.24 295.765-226.347 393.557-196.565-301.227-27.136-711.808 329.685-781.867l165.12 279.509z" />
<glyph unicode="&#xe916;" d="M669.867 618.24c45.616-42.666 74.043-103.22 74.043-170.414 0-42.778-11.522-82.865-31.632-117.328l0.597 1.107c-40.576-69.973-170.155-288.683-232.96-394.581 367.659-22.656 635.733 337.664 514.645 681.259h-324.693z" />
<glyph unicode="&#xe917;" glyph-name="classify" d="M213.333 746.667v-170.667h170.667v170.667h-170.667zM469.333 832v-341.333h-341.333v341.333h341.333zM213.333 320v-170.667h170.667v170.667h-170.667zM469.333 405.333v-341.333h-341.333v341.333h341.333zM640 746.667v-170.667h170.667v170.667h-170.667zM896 832v-341.333h-341.333v341.333h341.333zM640 320v-170.667h170.667v170.667h-170.667zM896 405.333v-341.333h-341.333v341.333h341.333z" />
<glyph unicode="&#xe918;" glyph-name="clock" d="M480 704c9.344 0 17.024-3.008 23.040-8.96 5.952-6.016 8.96-13.696 8.96-23.040v-224h224c21.312 0 32-10.688 32-32s-10.688-32-32-32h-256.192c-21.12 0.064-31.808 10.688-31.808 31.808v256.192c0 9.344 3.008 17.024 8.96 23.040 5.625 5.552 13.357 8.981 21.89 8.981 0.404 0 0.807-0.008 1.207-0.023l-0.058 0.002zM195.52 131.52c84.288-84.352 189.76-128.192 316.48-131.52 126.72 3.328 232.192 47.168 316.48 131.52 84.352 84.288 128.192 189.76 131.52 316.48-3.328 126.72-47.168 232.192-131.52 316.48-84.288 84.352-189.76 128.192-316.48 131.52-126.72-3.328-232.192-47.168-316.48-131.52-84.352-84.288-128.192-189.76-131.52-316.48 3.328-126.72 47.168-232.192 131.52-316.48zM783.488 176.512c-72.32-72.32-162.816-109.824-271.488-112.512-108.672 2.688-199.168 40.192-271.488 112.512s-109.824 162.816-112.512 271.488c2.688 108.672 40.192 199.168 112.512 271.488s162.816 109.824 271.488 112.512c108.672-2.688 199.168-40.192 271.488-112.512s109.824-162.816 112.512-271.488c-2.688-108.672-40.192-199.168-112.512-271.488z" />
<glyph unicode="&#xe919;" glyph-name="code" d="M322.133 663.467c-12.8 12.8-32 12.8-44.8 0l-192-192c-12.8-12.8-12.8-32 0-44.8l192-192c6.4-6.4 14.933-8.533 23.467-8.533s17.067 2.133 23.467 8.533c12.8 12.8 12.8 32 0 44.8l-172.8 168.533 168.533 168.533c12.8 12.8 12.8 34.133 2.133 46.933zM940.8 471.467l-192 192c-12.8 12.8-32 12.8-44.8 0s-12.8-32 0-44.8l168.533-168.533-168.533-168.533c-12.8-12.8-12.8-32 0-44.8 6.4-6.4 14.933-8.533 23.467-8.533s17.067 2.133 23.467 8.533l192 192c8.533 8.533 8.533 29.867-2.133 42.667zM622.933 883.2c-17.067 4.267-34.133-6.4-38.4-23.467l-217.6-802.133c-4.267-17.067 6.4-34.133 23.467-38.4 2.133 0 6.4-2.133 8.533-2.133 14.933 0 27.733 8.533 29.867 23.467l215.467 804.267c4.267 17.067-4.267 34.133-21.333 38.4z" />
<glyph unicode="&#xe91a;" glyph-name="colorMode" d="M512 896c-247.424 0-448-200.576-448-448s200.576-448 448-448v0c247.424 0 448 200.576 448 448s-200.576 448-448 448v0zM512 64v768c212.077 0 384-171.923 384-384s-171.923-384-384-384v0z" />
<glyph unicode="&#xe91b;" glyph-name="compass" d="M512 64c108.672 2.688 199.168 40.192 271.488 112.512s109.824 162.816 112.512 271.488c-2.688 108.672-40.192 199.168-112.512 271.488s-162.816 109.824-271.488 112.512c-108.672-2.688-199.168-40.192-271.488-112.512s-109.824-162.816-112.512-271.488c2.688-108.672 40.192-199.168 112.512-271.488s162.816-109.824 271.488-112.512zM512 0c-126.72 3.328-232.192 47.168-316.544 131.52-84.224 84.288-128.064 189.76-131.456 316.48 3.328 126.72 47.168 232.192 131.456 316.544 84.416 84.224 189.888 128.064 316.544 131.456 126.72-3.328 232.192-47.168 316.48-131.456 84.352-84.416 128.192-189.888 131.52-316.544-3.328-126.72-47.168-232.192-131.52-316.48-84.288-84.352-189.76-128.192-316.48-131.52zM726.016 644.992c-49.344-113.984-101.824-198.656-157.504-254.016s-140.16-107.648-253.504-156.992c-1.447-0.648-3.136-1.025-4.914-1.025-3.604 0-6.846 1.552-9.093 4.023l-0.009 0.010c-2.482 2.257-4.033 5.498-4.033 9.102 0 1.777 0.377 3.467 1.056 4.992l-0.031-0.078c49.344 113.344 101.696 197.696 156.992 252.992s139.968 107.968 254.016 158.016c1.447 0.648 3.136 1.025 4.914 1.025 3.604 0 6.846-1.552 9.093-4.023l0.009-0.010c2.482-2.257 4.033-5.498 4.033-9.102 0-1.777-0.377-3.467-1.056-4.992l0.031 0.078z" />
<glyph unicode="&#xe91c;" glyph-name="concerned" d="M790.976 769.28c5.792 5.798 13.797 9.385 22.64 9.385 8.832 0 16.829-3.578 22.619-9.364v0c83.048-82.796 134.432-197.312 134.432-323.83 0-0.206 0-0.412 0-0.618v0.032c0-0.174 0-0.38 0-0.586 0-126.449-51.328-240.909-134.285-323.683l-0.008-0.008c-5.809-5.903-13.884-9.56-22.814-9.56-17.673 0-32 14.327-32 32 0 8.927 3.655 17 9.551 22.804l0.004 0.004c71.386 71.202 115.552 169.666 115.552 278.445 0 0.205 0 0.411 0 0.616v-0.032c0 0.171 0 0.372 0 0.574 0 108.843-44.218 207.358-115.67 278.562l-0.011 0.011c-5.792 5.791-9.374 13.792-9.374 22.629s3.582 16.838 9.374 22.629v0zM187.616 769.152c5.792 5.795 13.795 9.379 22.635 9.379 17.675 0 32.003-14.328 32.003-32.003 0-8.835-3.58-16.833-9.368-22.624v0c-71.386-71.202-115.552-169.666-115.552-278.445 0-0.202 0-0.403 0-0.605v0.031c0-0.173 0-0.379 0-0.584 0-108.737 44.132-207.166 115.461-278.354l0.006-0.006c5.785-5.79 9.363-13.787 9.363-22.619 0-17.675-14.328-32.003-32.003-32.003-8.843 0-16.848 3.586-22.64 9.384v0c-82.902 82.772-134.187 197.189-134.187 323.585 0 0.21 0 0.42 0 0.63v-0.033c0 0.17 0 0.373 0 0.575 0 126.449 51.328 240.909 134.285 323.683l0.008 0.008zM330.795 674.133c5.798-5.792 9.385-13.797 9.385-22.64 0-8.827-3.574-16.819-9.354-22.608v0c-46.229-46.166-74.827-109.977-74.827-180.468 0-0.147 0-0.294 0-0.44v0.023c0-0.117 0-0.255 0-0.393 0-70.651 28.727-134.592 75.137-180.781l0.010-0.010c5.804-5.793 9.395-13.803 9.395-22.651 0-17.675-14.328-32.003-32.003-32.003-8.827 0-16.819 3.573-22.608 9.353v0c-58.025 57.783-93.931 137.739-93.931 226.081 0 0.142 0 0.285 0 0.427v-0.022c0 0.117 0 0.255 0 0.393 0 88.151 35.751 167.953 93.545 225.695l0.002 0.002c5.792 5.798 13.797 9.385 22.64 9.385 8.827 0 16.819-3.574 22.608-9.354v0zM738.155 674.4c57.974-57.775 93.846-137.696 93.846-225.996 0-0.142 0-0.285 0-0.427v0.023c0-0.12 0-0.262 0-0.404 0-88.204-35.794-168.049-93.649-225.8l-0.004-0.004c-5.792-5.798-13.797-9.384-22.64-9.384-17.675 0-32.003 14.328-32.003 32.003 0 8.832 3.578 16.828 9.363 22.619v0c46.293 46.178 74.934 110.034 74.934 180.579 0 0.138 0 0.276 0 0.414v-0.022c0 0.12 0 0.261 0 0.403 0 70.614-28.697 134.526-75.064 180.709l-0.008 0.008c-6.034 5.828-9.78 13.99-9.78 23.028 0 17.673 14.327 32 32 32 9.027 0 17.18-3.738 22.998-9.749l0.008-0.009zM566.752 576c70.656 0 115.915-57.173 115.915-130.923 0-58.005-47.947-116.789-140.096-181.237-8.52-6.025-19.124-9.631-30.571-9.631s-22.050 3.606-30.738 9.743l0.167-0.112c-92.149 64.448-140.096 123.232-140.096 181.237 0 73.749 45.259 130.923 115.925 130.923 21.632 0 37.515-5.995 54.741-18.421 17.227 12.427 33.109 18.421 54.741 18.421zM566.752 512c-8.32 0-14.56-3.328-27.52-14.539l-6.336-5.504c-5.57-4.819-12.885-7.755-20.885-7.755s-15.315 2.936-20.926 7.79l0.040-0.034-6.336 5.504c-12.96 11.2-19.2 14.539-27.52 14.539-31.616 0-51.936-25.675-51.936-66.923 0-29.941 34.411-72.939 106.667-124.48 72.256 51.541 106.667 94.539 106.667 124.48 0 41.248-20.32 66.923-51.925 66.923z" />
<glyph unicode="&#xe91d;" glyph-name="console" d="M992 832h-960c-17.664 0-32-14.336-32-32v-704c0-17.696 14.336-32 32-32h960c17.696 0 32 14.304 32 32v704c0 17.664-14.304 32-32 32zM960 160c0-17.696-14.304-32-32-32h-832c-17.664 0-32 14.304-32 32v576c0 17.664 14.336 32 32 32h832c17.696 0 32-14.336 32-32v-576zM303.936 571.488l-123.36 123.392c-12 12-31.456 12-43.456 0s-12-31.456 0-43.456l107.456-107.424-107.456-107.456c-12-12-12-31.424 0-43.424s31.456-12 43.456 0l123.36 123.36c2.432 1.344 4.896 2.56 6.944 4.608 6.304 6.304 9.12 14.656 8.768 22.912 0.32 8.256-2.464 16.608-8.768 22.88-2.048 2.048-4.512 3.264-6.944 4.608zM608 448h-192c-17.664 0-32-14.336-32-32 0-17.696 14.336-32 32-32h192c17.696 0 32 14.304 32 32 0 17.664-14.304 32-32 32z" />
<glyph unicode="&#xe91e;" glyph-name="csharp" d="M490.667 278.613l17.493-104.107c-11.093-5.973-29.013-11.52-52.907-16.64-24.32-5.547-52.907-8.533-85.76-8.533-94.293 1.707-165.12 29.867-212.48 83.627-47.787 54.187-71.68 122.88-71.68 206.080 2.133 98.56 30.72 174.080 85.333 226.987 56.32 53.333 126.293 80.64 210.773 80.64 32 0 59.733-2.987 82.773-8.107s40.107-10.667 51.2-17.067l-24.747-106.24-45.227 14.507c-17.067 4.267-36.693 6.4-59.307 6.4-49.493 0.427-90.453-15.36-122.453-46.933-32.427-31.147-49.067-78.933-50.347-142.507 0-58.027 15.787-103.253 46.080-136.533 30.293-32.853 72.96-49.92 127.573-50.347l56.747 5.12c18.347 3.413 33.707 8.107 46.933 13.653zM592.64 149.333l26.027 170.667h-64l14.507 85.333h64l13.653 85.333h-64l14.507 85.333h64l26.027 170.667h85.333l-26.027-170.667h42.667l26.027 170.667h85.333l-26.027-170.667h64l-14.507-85.333h-64l-13.653-85.333h64l-14.507-85.333h-64l-26.027-170.667h-85.333l26.027 170.667h-42.667l-26.027-170.667h-85.333zM718.507 405.333h42.667l13.653 85.333h-42.667l-13.653-85.333z" />
<glyph unicode="&#xe91f;" glyph-name="dart" d="M175.13 784.773s215.574 107.723 323.34 161.649c16.943 8.538 36.928 13.538 58.081 13.538 1.795 0 3.581-0.036 5.358-0.107l-0.255 0.008c32.68-2.005 71.545-33.618 71.545-33.618l390.704-390.747v-417.624h-181.871v-181.871h-424.408l-383.964 383.964c-20.734 21.331-33.661 51.408-33.661 80.846 0 13.609 7.679 34.898 13.481 47.142l161.649 336.821zM204.098 755.805v-502.864c0.085-23.166 0.896-43.687 21.246-64.335l209.985-209.943h364.040v181.871l-595.271 595.271zM718.396 784.73c-38.354 38.226-77.177 75.939-116.896 112.757-12.884 11.391-24.19 19.966-45.649 19.71-15.785-0.597-37.116-8.319-37.116-8.319l-248.211-124.106 447.872-0.043z" />
<glyph unicode="&#xe920;" d="M538.368 893.184c-11.344-0.049-21.612-4.616-29.104-11.995l0.005 0.005-0.427-0.299-272.555-157.525 598.613-598.827 62.293 112.213-224.597 539.307-104.832 104.832c-7.513 7.583-17.927 12.281-29.439 12.288h-0.001z" />
<glyph unicode="&#xe921;" d="M236.928 724.011l-157.739-272.768c-7.434-7.461-12.031-17.754-12.031-29.121 0-11.494 4.7-21.889 12.282-29.371l130.48-130.608 510.421-200.789 115.413 64.085-3.115 3.115-0.811-0.085-320 320.512h-0.384l-274.517 275.072z" />
<glyph unicode="&#xe922;" d="M236.245 723.883l278.101-278.4h0.427l320.043-320.427 121.856 23.211 0.171 360.491-128.64 126.080c-28.16 27.605-71.467 45.397-114.987 51.285l0.085 1.365-477.013 36.352z" />
<glyph unicode="&#xe923;" d="M236.587 723.541l278.272-278.272v-0.384l320.256-320.256-23.296-121.813h-360.491l-126.037 128.725c-27.605 28.16-45.355 71.509-51.2 115.029l-1.408-0.128-36.096 477.099z" />
<glyph unicode="&#xe924;" glyph-name="database" d="M959.719 836.036c-87.274 73.778-255.125 123.664-447.869 123.664s-360.594-49.885-447.869-123.664c-40.788-34.49-63.981-74.078-63.981-116.266v-543.841c0-132.461 229.133-239.93 511.85-239.93s511.85 107.469 511.85 239.93v543.841c0 42.188-23.193 81.776-63.981 116.266zM87.774 770.356c19.794 21.894 50.685 43.087 89.374 61.182 42.288 19.794 92.073 35.49 147.957 46.586 58.983 11.697 121.764 17.595 186.745 17.595s127.763-5.898 186.745-17.595c55.884-11.097 105.669-26.792 147.957-46.586 38.689-18.095 69.58-39.288 89.374-61.182 15.795-17.495 23.793-34.49 23.793-50.485 0-16.095-7.998-33.090-23.793-50.485-19.794-21.894-50.685-43.087-89.374-61.182-42.288-19.894-92.073-35.49-147.957-46.586-58.983-11.697-121.864-17.595-186.745-17.595s-127.763 5.898-186.745 17.595c-55.884 11.097-105.669 26.792-147.957 46.586-38.689 18.095-69.58 39.288-89.374 61.182-15.795 17.295-23.793 34.29-23.793 50.385s7.998 33.090 23.793 50.585zM63.981 603.504c87.274-73.778 255.125-123.664 447.869-123.664s360.594 49.885 447.869 123.664v-155.255c0-16.095-7.998-33.090-23.793-50.485-19.794-21.894-50.685-43.087-89.374-61.182-42.288-19.794-92.073-35.49-147.957-46.586-58.983-11.697-121.864-17.595-186.745-17.595s-127.763 5.898-186.745 17.595c-55.884 11.097-105.669 26.792-147.957 46.586-38.689 18.095-69.58 39.288-89.374 61.182-15.795 17.495-23.793 34.49-23.793 50.485v155.255zM959.719 175.93c0-16.095-7.998-33.090-23.793-50.485-19.794-21.894-50.685-43.087-89.374-61.182-42.288-19.894-92.073-35.49-147.957-46.586-58.983-11.697-121.864-17.595-186.745-17.595s-127.763 5.898-186.745 17.595c-55.884 11.097-105.669 26.792-147.957 46.586-38.689 18.095-69.58 39.288-89.374 61.182-15.795 17.395-23.793 34.39-23.793 50.485v156.154c87.274-73.778 255.125-123.664 447.869-123.664s360.594 49.885 447.869 123.664v-156.154zM127.963 440.152c0-0.002 0-0.004 0-0.006 0-22.085 17.903-39.988 39.988-39.988s39.988 17.903 39.988 39.988c0 0.002 0 0.004 0 0.007v0c0 0.002 0 0.004 0 0.006 0 22.085-17.903 39.988-39.988 39.988s-39.988-17.903-39.988-39.988c0-0.002 0-0.004 0-0.007v0zM127.963 168.232c0-0.002 0-0.004 0-0.006 0-22.085 17.903-39.988 39.988-39.988s39.988 17.903 39.988 39.988c0 0.002 0 0.004 0 0.007v0c0 0.002 0 0.004 0 0.006 0 22.085-17.903 39.988-39.988 39.988s-39.988-17.903-39.988-39.988c0-0.002 0-0.004 0-0.007v0z" />
<glyph unicode="&#xe925;" glyph-name="database-fill" d="M511.85 959.7c-282.517 0-511.55-107.269-511.85-239.63v-544.141c0-132.461 229.133-239.93 511.85-239.93s511.85 107.469 511.85 239.93v544.141c-0.3 132.361-229.333 239.63-511.85 239.63zM167.951 64.262c-22.094 0-39.988 17.895-39.988 39.988s17.895 39.988 39.988 39.988 39.988-17.895 39.988-39.988-17.895-39.988-39.988-39.988zM959.719 252.907c-17.895-11.497-37.489-22.193-58.783-32.191-104.969-49.186-243.229-76.278-389.086-76.278s-284.117 27.092-389.086 76.278c-21.294 9.997-40.888 20.694-58.783 32.191v79.177c87.274-73.778 255.125-123.664 447.869-123.664s360.594 49.885 447.869 123.664v-79.177zM127.963 376.171c0 22.094 17.895 39.988 39.988 39.988s39.988-17.895 39.988-39.988-17.895-39.988-39.988-39.988-39.988 17.895-39.988 39.988zM959.719 524.328c-17.895-11.497-37.489-22.193-58.783-32.191-104.969-49.186-243.229-76.278-389.086-76.278s-284.117 27.092-389.086 76.278c-21.294 9.997-40.888 20.694-58.783 32.191v79.177c87.274-73.778 255.125-123.664 447.869-123.664s360.594 49.885 447.869 123.664v-79.177z" />
<glyph unicode="&#xe926;" glyph-name="douyin" d="M937.4 536.1c-84 0-165.7 27.3-232.9 77.8v-352.3c0-179.9-138.6-325.6-309.6-325.6s-309.6 145.7-309.6 325.6c0 179.9 138.6 325.6 309.6 325.6 17.1 0 33.7-1.5 49.9-4.3v-186.6c-15.5 6.1-32 9.2-48.6 9.2-76.3 0-138.2-65-138.2-145.3 0-80.2 61.9-145.3 138.2-145.3 76.2 0 138.1 65.1 138.1 145.3v699.8h172.7c0-134.5 103.7-243.5 231.6-243.5v-180.3l-1.2-0.1z" />
<glyph unicode="&#xe927;" glyph-name="down" d="M527.135 294.024c-5.18 0-10.359 1.955-14.34 5.863l-292.96 287.686c-8.065 7.919-8.182 20.877-0.263 28.942 7.92 8.065 20.879 8.181 28.942 0.263l278.62-273.603 278.621 273.603c8.064 7.918 21.023 7.802 28.942-0.263s7.802-21.023-0.264-28.942l-292.958-287.685c-3.981-3.909-9.161-5.864-14.34-5.864z" />
<glyph unicode="&#xe928;" glyph-name="down-arrow" d="M898.133 448c-12.8 12.8-32 12.8-44.8 2.133l-309.333-290.133v650.667c0 17.067-14.933 32-32 32s-32-14.933-32-32v-650.667l-309.333 290.133c-12.8 12.8-34.133 10.667-44.8-2.133-12.8-12.8-10.667-34.133 2.133-44.8l362.667-341.333c2.133-2.133 6.4-4.267 8.533-6.4 4.267-2.133 6.4-2.133 10.667-2.133s8.533 0 10.667 2.133c4.267 2.133 6.4 4.267 8.533 6.4l362.667 341.333c17.067 12.8 19.2 32 6.4 44.8z" />
<glyph unicode="&#xe929;" glyph-name="down-bold" d="M904.533 648.533c-17.067 17.067-42.667 17.067-59.733 0l-332.8-332.8-332.8 332.8c-17.067 17.067-42.667 17.067-59.733 0s-17.067-42.667 0-59.733l362.667-362.667c8.533-8.533 19.2-12.8 29.867-12.8s21.333 4.267 29.867 12.8l362.667 362.667c17.067 17.067 17.067 42.667 0 59.733z" />
<glyph unicode="&#xe92a;" glyph-name="down-filling" d="M482.133 221.867l-345.6 345.6c-17.067 17.067-17.067 42.667 0 59.733 8.533 8.533 19.2 12.8 29.867 12.8h689.067c23.467 0 42.667-19.2 42.667-42.667 0-10.667-4.267-21.333-12.8-29.867l-343.467-345.6c-17.067-17.067-42.667-17.067-59.733 0z" />
<glyph unicode="&#xe92b;" glyph-name="download" d="M896 288c-17.067 0-32-14.933-32-32v-128c0-6.4-4.267-10.667-10.667-10.667h-682.667c-6.4 0-10.667 4.267-10.667 10.667v128c0 17.067-14.933 32-32 32s-32-14.933-32-32v-128c0-40.533 34.133-74.667 74.667-74.667h682.667c40.533 0 74.667 34.133 74.667 74.667v128c0 17.067-14.933 32-32 32zM488.533 232.533c6.4-6.4 14.933-8.533 23.467-8.533s17.067 2.133 23.467 8.533l213.333 213.333c12.8 12.8 12.8 32 0 44.8s-32 12.8-44.8 0l-157.867-157.867v456.533c0 17.067-14.933 32-32 32s-34.133-14.933-34.133-32v-456.533l-157.867 157.867c-12.8 12.8-32 12.8-44.8 0s-12.8-32 0-44.8l211.2-213.333z" />
<glyph unicode="&#xe92c;" glyph-name="email" d="M874.667 778.667h-725.333c-40.533 0-74.667-34.133-74.667-74.667v-512c0-40.533 34.133-74.667 74.667-74.667h725.333c40.533 0 74.667 34.133 74.667 74.667v512c0 40.533-34.133 74.667-74.667 74.667zM149.333 714.667h725.333c6.4 0 10.667-4.267 10.667-10.667v-25.6l-373.333-234.667-373.333 234.667v25.6c0 6.4 4.267 10.667 10.667 10.667zM874.667 181.333h-725.333c-6.4 0-10.667 4.267-10.667 10.667v411.733l356.267-224c4.267-4.267 10.667-4.267 17.067-4.267s12.8 2.133 17.067 4.267l356.267 224v-411.733c0-6.4-4.267-10.667-10.667-10.667z" />
<glyph unicode="&#xe92d;" glyph-name="excel" d="M576 864v20.1c0 40.3-36.9 70.6-76.4 62.8l-448-88.7c-30-5.9-51.6-32.2-51.6-62.8v-694.7c0-30.6 21.7-57 51.8-62.8l448-87.1c39.5-7.7 76.2 22.6 76.2 62.8v18.4h416c17.7 0 32 14.3 32 32v768c0 17.7-14.3 32-32 32h-416zM492.9 17.3l-416 80.9c-7.5 1.5-12.9 8-12.9 15.7v668.4c0 7.6 5.4 14.2 12.9 15.7l416 82.3c9.9 2 19.1-5.6 19.1-15.7v-831.6c0-10-9.2-17.6-19.1-15.7zM952 96h-376v88c0 4.4 3.6 8 8 8h96c4.4 0 8 3.6 8 8v48c0 4.4-3.6 8-8 8h-96c-4.4 0-8 3.6-8 8v32c0 4.4 3.6 8 8 8h96c4.4 0 8 3.6 8 8v48c0 4.4-3.6 8-8 8h-96c-4.4 0-8 3.6-8 8v32c0 4.4 3.6 8 8 8h96c4.4 0 8 3.6 8 8v48c0 4.4-3.6 8-8 8h-96c-4.4 0-8 3.6-8 8v32c0 4.4 3.6 8 8 8h96c4.4 0 8 3.6 8 8v48c0 4.4-3.6 8-8 8h-96c-4.4 0-8 3.6-8 8v32c0 4.4 3.6 8 8 8h96c4.4 0 8 3.6 8 8v48c0 4.4-3.6 8-8 8h-96c-4.4 0-8 3.6-8 8v88h376c4.4 0 8-3.6 8-8v-688c0-4.4-3.6-8-8-8zM760 704c-4.4 0-8-3.6-8-8v-48c0-4.4 3.6-8 8-8h128c4.4 0 8 3.6 8 8v48c0 4.4-3.6 8-8 8h-128zM760 592c-4.4 0-8-3.6-8-8v-48c0-4.4 3.6-8 8-8h128c4.4 0 8 3.6 8 8v48c0 4.4-3.6 8-8 8h-128zM760 480c-4.4 0-8-3.6-8-8v-48c0-4.4 3.6-8 8-8h128c4.4 0 8 3.6 8 8v48c0 4.4-3.6 8-8 8h-128zM760 368c-4.4 0-8-3.6-8-8v-48c0-4.4 3.6-8 8-8h128c4.4 0 8 3.6 8 8v48c0 4.4-3.6 8-8 8h-128zM760 256c-4.4 0-8-3.6-8-8v-48c0-4.4 3.6-8 8-8h128c4.4 0 8 3.6 8 8v48c0 4.4-3.6 8-8 8h-128zM403.4 239.7l-72.7 12.8c-5.2 0.9-9.6 4.3-11.8 9.1l-56.5 123.7c-2 4.5-4.1 12.5-6.3 24h-0.8c-1.1-5.6-3.5-13.5-7.2-23.9l-47.3-98.4c-3.1-6.5-10.1-10.1-17.2-8.8l-43 7.5c-5.4 0.9-8.2 6.8-5.7 11.6l75.4 142c2.4 4.5 2.5 9.9 0.3 14.5l-69.5 143c-2.3 4.8 0.6 10.5 5.8 11.4l45.2 7.9c7.3 1.3 14.5-2.6 17.5-9.4l38.9-90.6c3.7-8.8 6.9-18.5 9.6-29.3h0.8c2.8 10 6.3 20.6 10.4 31.9l52.1 113.2c2.2 4.8 6.6 8.2 11.8 9.1l67.1 11.8c6.6 1.2 11.6-5.8 8.4-11.7l-101.8-185.2c-2.6-4.8-2.6-10.7 0-15.5l104.8-189c3.3-5.8-1.7-12.8-8.3-11.7z" />
<glyph unicode="&#xe92e;" glyph-name="exchange" d="M928 576c9.344 0 17.024-3.008 23.040-8.96 5.952-6.016 8.96-13.696 8.96-23.040 0.014-0.343 0.021-0.745 0.021-1.15 0-8.533-3.429-16.265-8.985-21.894l0.003 0.003c-5.625-5.552-13.357-8.981-21.89-8.981-0.404 0-0.807 0.008-1.207 0.023l0.058-0.002h-787.008c-0.177-0.004-0.385-0.006-0.594-0.006-6.368 0-12.254 2.067-17.022 5.566l0.080-0.056c-4.98 3.733-8.892 8.63-11.367 14.299l-0.089 0.229c-1.703 3.62-2.697 7.862-2.697 12.337 0 2.182 0.236 4.308 0.685 6.355l-0.036-0.196c1.382 6.524 4.573 12.153 9.018 16.507l0.006 0.005 296.96 296.96c5.528 5.544 13.173 8.974 21.619 8.974 0.32 0 0.638-0.005 0.956-0.015l-0.046 0.001c8.96 0 16.512-2.944 22.464-8.96 6.085-5.608 9.921-13.576 10.048-22.441v-0.023c0-8.32-3.328-15.872-10.048-22.528l-243.008-243.008h710.080zM883.008 384c0.158 0.003 0.345 0.005 0.532 0.005 6.367 0 12.252-2.066 17.020-5.565l-0.080 0.056c4.998-3.71 8.93-8.586 11.43-14.237l0.090-0.227c2.688-6.016 3.328-12.16 1.984-18.56-1.376-6.494-4.543-12.099-8.956-16.444l-296.964-296.964c-5.534-5.581-13.204-9.036-21.68-9.036-0.298 0-0.595 0.004-0.891 0.013l0.044-0.001c-0.271-0.009-0.59-0.014-0.909-0.014-8.446 0-16.091 3.43-21.618 8.973l-0.001 0.001c-6.076 5.631-9.893 13.625-9.984 22.512v0.016c0 8.32 3.328 15.808 9.984 22.464l243.008 243.008h-710.016c-0.324-0.012-0.705-0.019-1.088-0.019-8.532 0-16.263 3.428-21.892 8.982l0.003-0.003c-5.552 5.625-8.981 13.357-8.981 21.89 0 0.404 0.008 0.807 0.023 1.207l-0.002-0.058c0 9.344 2.944 17.024 8.96 23.040 5.625 5.552 13.357 8.981 21.89 8.981 0.404 0 0.807-0.008 1.207-0.023l-0.058 0.002h786.944z" />
<glyph unicode="&#xe92f;" glyph-name="eye-off" d="M876.8 803.2c0 9.6-3.2 16-9.6 22.4s-12.8 9.6-22.4 9.6c-9.6 0-16-3.2-22.4-9.6l-86.4-86.4c-64 32-137.6 51.2-224 60.8-160-16-288-73.6-377.6-176s-134.4-160-134.4-176 48-73.6 134.4-176c22.4-25.6 44.8-48 73.6-67.2l-86.4-89.6c-6.4-6.4-9.6-12.8-9.6-22.4s3.2-16 9.6-22.4c6.4-6.4 12.8-9.6 22.4-9.6s16 3.2 22.4 9.6l704 710.4c3.2 6.4 6.4 12.8 6.4 22.4zM230.4 275.2c-76.8 70.4-128 128-153.6 172.8 28.8 48 80 105.6 153.6 172.8s169.6 108.8 281.6 115.2c64-3.2 124.8-19.2 176-44.8l-54.4-54.4c-35.2 22.4-73.6 35.2-121.6 35.2-64 0-115.2-22.4-160-64s-64-96-64-160c0-48 12.8-89.6 35.2-124.8l-67.2-70.4c-9.6 6.4-19.2 16-25.6 22.4zM371.2 371.2c-12.8 22.4-19.2 48-19.2 76.8 0 44.8 16 83.2 48 112s67.2 48 112 48c28.8 0 54.4-6.4 73.6-19.2l-214.4-217.6zM889.6 624c-12.8 16-28.8 28.8-41.6 41.6l-48-48c73.6-67.2 124.8-124.8 150.4-169.6-28.8-48-80-105.6-153.6-172.8s-172.8-108.8-284.8-115.2c-51.2 3.2-99.2 12.8-140.8 28.8l-48-48c57.6-22.4 118.4-38.4 188.8-44.8 160 16 288 73.6 377.6 176s134.4 160 134.4 176-48 73.6-134.4 176zM512 288c-12.8 0-25.6 3.2-38.4 6.4l-51.2-51.2c28.8-12.8 57.6-19.2 89.6-19.2 64 0 115.2 22.4 160 64 41.6 41.6 64 96 64 160 0 32-6.4 64-19.2 89.6l-51.2-51.2c3.2-12.8 6.4-25.6 6.4-38.4 0-44.8-16-83.2-48-112s-67.2-48-112-48z" />
<glyph unicode="&#xe930;" glyph-name="eye-open" d="M512 800c161.344-14.72 286.72-73.344 376-176 89.344-102.656 134.656-161.28 136-176-1.344-14.72-46.72-73.344-136-176-89.344-102.656-214.656-161.28-376-176-161.344 14.72-286.72 73.344-376 176-89.344 102.656-134.656 161.28-136 176 1.344 14.72 46.72 73.344 136 176 89.344 102.656 214.656 161.28 376 176zM512 736c-113.344-7.36-207.68-45.504-283.008-114.496s-126.72-126.848-153.984-173.504c27.328-46.72 78.656-104.512 153.984-173.504s169.664-107.136 283.008-114.496c113.344 7.36 207.68 45.504 283.008 114.496s126.72 126.848 153.984 173.504c-27.264 46.72-78.656 104.512-153.984 173.504s-169.664 107.136-283.008 114.496zM512 672c63.36-1.344 116.16-23.168 158.464-65.536 42.368-42.24 64.192-95.104 65.536-158.464-1.344-63.36-23.168-116.16-65.536-158.464-42.24-42.432-95.104-64.256-158.464-65.536-63.36 1.344-116.16 23.168-158.464 65.536-42.368 42.24-64.256 95.104-65.536 158.464 1.344 63.36 23.168 116.16 65.536 158.464 42.24 42.368 95.104 64.256 158.464 65.536zM512 608c-45.312-1.344-83.008-17.024-113.024-46.976-29.952-30.080-45.632-67.712-46.976-113.024 1.344-45.312 17.024-83.008 46.976-112.96 30.080-30.080 67.712-45.696 113.024-47.040 45.312 1.344 83.008 17.024 112.96 47.040 30.080 29.952 45.696 67.648 47.040 112.96-1.344 45.312-17.024 83.008-47.040 113.024-29.952 29.952-67.648 45.632-112.96 46.976z" />
<glyph unicode="&#xe931;" glyph-name="FAO" d="M512-58.611c-280.253 0-508.407 228.154-508.407 510.204 0 280.253 228.154 508.407 508.407 508.407s508.407-228.154 508.407-508.407c1.796-282.049-226.358-510.204-508.407-510.204zM510.204 651.004s41.319-43.116 41.319-79.046c0-37.726-28.744-46.709-39.523-46.709h-3.593c-10.779 0-39.523 8.982-39.523 46.709 0 35.93 41.319 79.046 41.319 79.046zM127.551 422.849h46.709v86.232h77.249v35.93h-77.249v48.505h80.842v35.93h-127.551v-206.596zM553.319 645.614h48.505l-57.488 204.8h-62.877l-59.284-204.8h44.912l12.575 46.709h59.284l14.372-46.709zM531.761 726.456h-43.116l19.761 89.825h3.593l19.761-89.825zM747.34 525.249c0-61.081 28.744-105.993 86.232-105.993 59.284 0 88.028 46.709 88.028 105.993 0 61.081-28.744 105.993-88.028 105.993-57.488 0-86.232-46.709-86.232-105.993zM797.642 525.249c0 39.523 8.982 71.86 37.726 71.86s37.726-32.337 37.726-71.86-10.779-71.86-37.726-71.86c-28.744 0-37.726 32.337-37.726 71.86zM490.442-1.123c3.593 19.761 5.389 52.098 5.389 89.825v7.186c0 52.098-1.796 70.063-37.726 82.639-53.895 17.965-77.249 79.046-64.674 154.498l-179.649 458.105c-93.418-82.639-154.498-204.8-154.498-339.537 0-242.526 192.225-441.937 431.158-452.716zM512 291.705c-71.86 16.168-98.807 82.639-98.807 140.126l-158.091 391.635c-10.779-7.186-21.558-16.168-30.54-23.354 34.133-82.639 192.225-454.512 192.225-454.512 26.947-66.47 79.046-44.912 89.825-100.604 3.593-12.575 3.593-19.761 3.593-19.761h5.389s0 5.389 3.593 19.761c12.575 55.691 62.877 32.337 89.825 100.604 0 0 156.295 371.874 192.225 454.512-10.779 7.186-19.761 16.168-30.54 23.354l-158.091-389.839c0-59.284-26.947-123.958-100.604-141.923zM512 410.274c-30.54 7.186-68.267 37.726-73.656 75.453-1.796 14.372-3.593 19.761-1.796 48.505l-138.33 316.182c-10.779-5.389-21.558-12.575-32.337-19.761 41.319-93.418 168.87-379.060 168.87-379.060 19.761-43.116 55.691-43.116 68.267-68.267 7.186-14.372 7.186-28.744 8.982-28.744h5.389c0 1.796 0 14.372 8.982 28.744 12.575 25.151 46.709 25.151 68.267 68.267 0 0 127.551 285.642 168.87 379.060-10.779 7.186-21.558 14.372-32.337 19.761l-138.33-314.386c1.796-28.744 0-34.133-1.796-48.505-8.982-39.523-46.709-70.063-79.046-77.249zM513.796 464.168l1.796 17.965c8.982 39.523 37.726 34.133 57.488 73.656 0 1.796 98.807 211.986 140.126 300.014-61.081 30.54-129.347 46.709-201.207 46.709s-141.923-17.965-201.207-46.709c41.319-88.028 140.126-300.014 140.126-300.014 19.761-39.523 48.505-34.133 57.488-73.656l1.796-17.965h3.593zM964.716 451.593c0 134.737-59.284 256.898-154.498 339.537l-179.649-461.698c12.575-75.453-10.779-136.533-64.674-154.498-35.93-10.779-37.726-28.744-37.726-82.639v-7.186c0-37.726 3.593-70.063 5.389-89.825 240.73 14.372 431.158 213.782 431.158 456.309zM203.004 316.856l12.575-25.151c5.389-10.779 12.575-21.558 12.575-21.558l-12.575-7.186s-8.982 14.372-17.965 32.337c-1.796-1.796-16.168-8.982-19.761-8.982 1.796-1.796 16.168-30.54 16.168-30.54l-12.575-7.186s-14.372 28.744-16.168 30.54c-1.796-1.796-34.133-17.965-34.133-17.965l-5.389 16.168 77.249 39.523zM249.712 239.607l10.779-12.575-66.47-55.691-10.779 12.575 66.47 55.691zM312.589 182.119l12.575-8.982-16.168-91.621-14.372 8.982s3.593 17.965 3.593 19.761c0 0-8.982 5.389-17.965 12.575-8.982 5.389-16.168 12.575-17.965 14.372-1.796-1.796-17.965-10.779-17.965-10.779l-12.575 10.779 80.842 44.912zM273.067 142.596c1.796-1.796 7.186-5.389 12.575-10.779 5.389-3.593 12.575-7.186 14.372-8.982 0 3.593 7.186 34.133 8.982 39.523-5.389-1.796-32.337-17.965-35.93-19.761zM366.484 147.986s14.372-7.186 34.133-14.372c14.372-5.389 25.151-8.982 35.93-10.779l-3.593-12.575s-10.779 1.796-28.744 7.186c-1.796-3.593-23.354-68.267-23.354-68.267l-16.168 5.389s23.354 64.674 23.354 68.267c-16.168 5.389-26.947 12.575-26.947 12.575l5.389 12.575zM639.551 130.021c5.389-3.593 8.982-8.982 12.575-16.168 1.796-3.593 1.796-5.389 1.796-8.982 0-12.575-8.982-21.558-23.354-26.947 0 0-7.186-1.796-10.779-3.593 0-3.593 10.779-32.337 10.779-32.337l-14.372-3.593-25.151 82.639 23.354 7.186c7.186 5.389 17.965 5.389 25.151 1.796zM607.214 115.649c0-1.796 7.186-23.354 7.186-25.151 3.593 1.796 10.779 3.593 10.779 3.593 1.796 0 7.186 3.593 10.779 7.186 0 1.796 1.796 3.593 1.796 5.389v3.593c-1.796 3.593-3.593 5.389-5.389 7.186-5.389 1.796-10.779 1.796-14.372 0-3.593 0-8.982-1.796-10.779-1.796zM689.853 165.951l75.453-53.895-12.575-8.982s-14.372 10.779-16.168 12.575c0 0-8.982-5.389-16.168-10.779s-16.168-8.982-17.965-8.982c0-1.796 3.593-19.761 3.593-19.761l-14.372-7.186-12.575 91.621 10.779 5.389zM698.835 108.463c1.796 1.796 7.186 3.593 14.372 7.186 5.389 3.593 8.982 5.389 10.779 7.186-3.593 1.796-26.947 19.761-30.54 23.354 0-5.389 5.389-34.133 5.389-37.726zM776.084 241.404l64.674-57.488-10.779-14.372s-61.081 17.965-70.063 19.761c7.186-7.186 44.912-46.709 44.912-46.709l-12.575-8.982-61.081 62.877 14.372 12.575s59.284-17.965 68.267-19.761c-7.186 7.186-48.505 41.319-48.505 41.319l10.779 10.779zM804.828 286.316l75.453-44.912-7.186-12.575-75.453 43.116 7.186 14.372zM838.961 358.175l12.575-7.186-1.796-1.796c-3.593-5.389-5.389-7.186-7.186-14.372-1.796-1.796-1.796-7.186 0-10.779 1.796-1.796 1.796-3.593 5.389-3.593 5.389-1.796 10.779 3.593 16.168 8.982 7.186 8.982 17.965 17.965 34.133 12.575s21.558-19.761 14.372-39.523c-1.796-5.389-5.389-10.779-8.982-16.168v-1.796l-12.575 5.389 1.796 1.796c1.796 1.796 7.186 8.982 8.982 14.372s1.796 16.168-7.186 17.965c-7.186 1.796-12.575-3.593-19.761-8.982-7.186-7.186-16.168-17.965-30.54-12.575-7.186 1.796-10.779 5.389-14.372 10.779-3.593 7.186-3.593 14.372 0 23.354 0 8.982 3.593 16.168 8.982 21.558z" />
<glyph unicode="&#xe932;" glyph-name="file" d="M706.066 487.756h-385.282c-11.817 0-21.406-10.050-21.406-22.441v-11.176c0-12.402 9.589-22.452 21.406-22.452h385.282c11.817 0 21.406 10.061 21.406 22.452v11.176c0.011 12.391-9.589 22.441-21.406 22.441zM504.208 285.538h-184.346c-11.311 0-20.483-10.095-20.483-22.542v-11.344c0-12.436 9.172-22.531 20.483-22.531h184.346c11.311 0 20.483 10.084 20.483 22.531v11.344c0 12.447-9.172 22.542-20.483 22.542zM896.456 960h-766.061c-24.895 0-45.062-20.888-45.062-46.661v-929.722c0-25.761 20.168-46.661 45.062-46.661h545.307c8.306 1.733 23.004 6.798 38.479 21.811l204.615 205.201c0 0 17.759 17.118 22.734 45.603v703.769c-0.011 25.772-20.19 46.661-45.074 46.661zM885.022 170.98c-0.034 0.574-0.113 1.137-0.169 1.699l0.169 0.169v-1.868zM885.022 217.989h-174.96c-40.178 0-50.093-12.076-50.093-50.42v-115.582l-0.023-0.023v-58.939h-493.335c-13.685 0-24.771 11.479-24.771 25.604v859.675c0 14.158 11.086 25.615 24.771 25.615h693.64c13.685 0 24.771-11.457 24.771-25.615v-660.316zM706.066 701.566h-385.282c-11.817 0-21.406-10.084-21.406-22.531v-11.344c0-12.436 9.589-22.531 21.406-22.531h385.282c11.817 0 21.406 10.084 21.406 22.531v11.344c0.011 12.436-9.589 22.531-21.406 22.531z" />
<glyph unicode="&#xe933;" glyph-name="firefox" d="M516-64q-161.714 0-288.286 86t-188.286 227.714q-33.143 74.857-38.286 172t14.857 190 63.429 178.286 102.286 138.571l-6.286-160.571q6.286 8 38.857 8.857t40-8.857q24 46.286 91.714 78.857t134 33.714q-30.857-25.714-68.286-84.857t-33.429-93.429q14.286-4.571 35.714-7.714t36-4.286 38.857-2.286 28.857-1.714q8.571-2.857 5.429-26t-17.429-43.143q-2.857-4-9.429-10.571t-32.286-20.286-57.714-19.429l8.571-108-79.429 38.286q-10.286-24.571-4.286-46.571t20.571-38 37.429-23.714 46.286-3.714q29.143 5.143 56 19.714t47.714 25.714 42 10q34.857-2.286 51.143-18.857t11.143-37.143q-0.571-1.143-1.429-3.143t-4.857-7.143-10.286-8.857-18-6-26.571-0.571q-34.286-54.286-82.571-77.429t-119.714-16.857q42.286-34.857 92.857-47.143t96.286-3.429 88.286 29.714 73.143 50 46 59.429q24.571 52 22.286 110t-21.429 107.714-44.857 71.429q49.714-21.714 78.286-45.429t44-64.286q8.571 97.143-32.857 196t-119.714 162.286q151.429-44 235.429-159.714t86.286-295.714q1.143-72.571-23.143-145.714t-70.571-136-108-112-141.429-77.429-164.857-28.286z" />
<glyph unicode="&#xe934;" glyph-name="folder-close" d="M128 768v-640h768v512h-410.048l-128 128h-229.952zM96 832h288l128-128h416c9.344 0 17.024-3.008 23.040-8.96 5.952-6.016 8.96-13.696 8.96-23.040v-576c0.014-0.343 0.021-0.745 0.021-1.15 0-8.533-3.429-16.265-8.985-21.894l0.003 0.003c-5.625-5.552-13.357-8.981-21.89-8.981-0.404 0-0.807 0.008-1.207 0.023l0.058-0.002h-832c-0.343-0.014-0.745-0.021-1.15-0.021-8.533 0-16.265 3.429-21.894 8.985l0.003-0.003c-5.552 5.625-8.981 13.357-8.981 21.89 0 0.404 0.008 0.807 0.023 1.207l-0.002-0.058v704c0 9.344 3.008 17.024 8.96 23.040 5.625 5.552 13.357 8.981 21.89 8.981 0.404 0 0.807-0.008 1.207-0.023l-0.058 0.002z" />
<glyph unicode="&#xe935;" glyph-name="folder-open" d="M878.016 512h-636.032l-96-384h636.032l96 384zM832 576v64h-346.048l-128 128h-229.952v-448l57.984 232c3.679 13.909 16.149 23.996 30.976 24h615.040zM807.040 64h-711.040c-0.343-0.014-0.745-0.021-1.15-0.021-8.533 0-16.265 3.429-21.894 8.985l0.003-0.003c-5.552 5.625-8.981 13.357-8.981 21.89 0 0.404 0.008 0.807 0.023 1.207l-0.002-0.058v704c0 9.344 3.008 17.024 8.96 23.040 5.625 5.552 13.357 8.981 21.89 8.981 0.404 0 0.807-0.008 1.207-0.023l-0.058 0.002h288l128-128h352c9.344 0 17.024-3.008 23.040-8.96 5.952-6.016 8.96-13.696 8.96-23.040v-96h23.040c0.119 0.002 0.26 0.003 0.401 0.003 9.933 0 18.717-4.919 24.049-12.455l0.062-0.092c6.272-8.32 8.448-17.472 6.464-27.456l-112-448c-3.679-13.909-16.149-23.996-30.976-24v0z" />
<glyph unicode="&#xe936;" glyph-name="footmark" d="M320 832c0 70.656-57.344 128-128 128s-128-57.344-128-128 57.344-128 128-128 128 57.344 128 128zM544 768c52.992 0 96 43.008 96 96s-43.008 96-96 96-96-43.008-96-96 43.008-96 96-96zM864 896c-52.992 0-96-43.008-96-96s43.008-96 96-96 96 43.008 96 96-43.008 96-96 96zM537.088 702.784c-77.056 1.216-164.736-10.688-234.944-72.896-70.272-62.208-61.504-217.6 37.824-259.392 99.392-41.728 121.28-113.92 94.656-203.776s18.816-166.72 132.416-166.72c195.84 0 264.96 183.488 264.96 389.056 0 223.552-87.872 310.592-294.912 313.728z" />
<glyph unicode="&#xe937;" glyph-name="fullscreen-expand" d="M149.333 565.333c17.067 0 32 14.933 32 32v136.533l187.733-187.733c6.4-6.4 14.933-8.533 23.467-8.533s17.067 2.133 23.467 8.533c12.8 12.8 12.8 32 0 44.8l-187.733 187.733h134.4c17.067 0 32 14.933 32 32s-14.933 32-32 32h-213.333c-4.267 0-8.533 0-10.667-2.133-8.533-4.267-14.933-10.667-19.2-17.067-2.133-4.267-2.133-8.533-2.133-12.8v-213.333c0-17.067 14.933-32 32-32zM874.667 330.667c-17.067 0-32-14.933-32-32v-136.533l-200.533 200.533c-12.8 12.8-32 12.8-44.8 0s-12.8-32 0-44.8l200.533-200.533h-136.533c-17.067 0-32-14.933-32-32s14.933-32 32-32h213.333c4.267 0 8.533 0 10.667 2.133 8.533 4.267 14.933 8.533 17.067 17.067 2.133 4.267 2.133 8.533 2.133 10.667v215.467c2.133 17.067-12.8 32-29.867 32zM381.867 364.8l-200.533-200.533v134.4c0 17.067-14.933 32-32 32s-32-14.933-32-32v-213.333c0-4.267 0-8.533 2.133-10.667 4.267-8.533 8.533-14.933 17.067-17.067 4.267-2.133 8.533-2.133 10.667-2.133h213.333c17.067 0 32 14.933 32 32s-14.933 32-32 32h-136.533l200.533 200.533c12.8 12.8 12.8 32 0 44.8s-29.867 10.667-42.667 0zM904.533 821.333c0 2.133 0 2.133 0 0-4.267 8.533-10.667 14.933-17.067 17.067-4.267 2.133-8.533 2.133-10.667 2.133h-215.467c-17.067 0-32-14.933-32-32s14.933-32 32-32h136.533l-187.733-187.733c-12.8-12.8-12.8-32 0-44.8 6.4-6.4 14.933-8.533 23.467-8.533s17.067 2.133 23.467 8.533l187.733 187.733v-134.4c0-17.067 14.933-32 32-32s32 14.933 32 32v213.333c-2.133 4.267-2.133 8.533-4.267 10.667z" />
<glyph unicode="&#xe938;" glyph-name="fullscreen-shrink" d="M313.6 601.6h-136.533c-17.067 0-32-14.933-32-32s14.933-32 32-32h213.333c4.267 0 8.533 0 10.667 2.133 8.533 4.267 14.933 8.533 17.067 17.067 2.133 4.267 2.133 8.533 2.133 10.667v213.333c0 17.067-14.933 32-32 32s-32-14.933-32-32v-136.533l-183.467 189.867c-12.8 12.8-32 12.8-44.8 0s-12.8-32 0-44.8l185.6-187.733zM695.467 309.333h136.533c17.067 0 32 14.933 32 32s-14.933 32-32 32h-213.333c-4.267 0-8.533 0-10.667-2.133-8.533-4.267-14.933-8.533-17.067-17.067-2.133-4.267-2.133-8.533-2.133-10.667v-213.333c0-17.067 14.933-32 32-32s32 14.933 32 32v136.533l200.533-200.533c6.4-6.4 14.933-8.533 23.467-8.533s17.067 2.133 23.467 8.533c12.8 12.8 12.8 32 0 44.8l-204.8 198.4zM435.2 354.133c-4.267 8.533-8.533 14.933-17.067 17.067-4.267 2.133-8.533 2.133-10.667 2.133h-215.467c-17.067 0-32-14.933-32-32s14.933-32 32-32h136.533l-200.533-200.533c-12.8-12.8-12.8-32 0-44.8 6.4-6.4 14.933-8.533 23.467-8.533s17.067 2.133 23.467 8.533l200.533 200.533v-136.533c0-17.067 14.933-32 32-32s32 14.933 32 32v213.333c-2.133 4.267-2.133 8.533-4.267 12.8zM603.733 556.8c4.267-8.533 8.533-14.933 17.067-17.067 4.267-2.133 8.533-2.133 10.667-2.133h213.333c17.067 0 32 14.933 32 32s-14.933 32-32 32h-136.533l187.733 187.733c12.8 12.8 12.8 32 0 44.8s-32 12.8-44.8 0l-187.733-187.733v136.533c0 17.067-14.933 32-32 32s-32-14.933-32-32v-213.333c2.133-4.267 2.133-8.533 4.267-12.8z" />
<glyph unicode="&#xe939;" glyph-name="game" horiz-adv-x="1027" d="M965.973-64h-85.333c-37.547 0-64.853 20.48-81.92 58.027l-112.64 215.040h-351.573l-109.227-225.28c-17.067-30.72-47.787-47.787-81.92-47.787h-81.92c-34.133 0-58.027 27.307-61.44 58.027 0 30.72 3.413 61.44 13.653 88.747l17.067 58.027c17.067 54.613 10.24 146.773-13.653 204.8-13.653 37.547-20.48 78.507-13.653 119.467 13.653 88.747 85.333 160.427 180.907 180.907 68.267 17.067 129.707 6.827 180.907-27.307h296.96c47.787 34.133 109.227 44.373 180.907 27.307 92.16-20.48 167.253-98.987 180.907-187.733 6.827-40.96 3.413-81.92-13.653-119.467-23.893-58.027-27.307-139.947-13.653-194.56l17.067-58.027c6.827-27.307 13.653-58.027 13.653-88.747-3.413-34.133-30.72-61.44-61.44-61.44zM324.267 243.2h372.053c6.827 0 13.653-3.413 13.653-10.24l116.053-225.28c10.24-23.893 27.307-37.547 51.2-37.547h85.333c13.653 0 23.893 10.24 27.307 23.893 0 27.307-3.413 54.613-10.24 78.507l-17.067 58.027c-17.067 61.44-10.24 150.187 13.653 218.453 13.653 30.72 17.067 68.267 10.24 102.4-10.24 78.507-75.093 143.36-153.6 160.427-61.44 13.653-116.053 3.413-157.013-27.307h-317.44c-3.413 0-6.827 0-10.24 3.413-40.96 30.72-95.573 40.96-160.427 27.307-81.92-17.067-139.947-78.507-153.6-153.6-6.827-34.133 0-71.68 10.24-102.4 27.307-64.853 30.72-163.84 13.653-225.28l-17.067-58.027c-3.413-27.307-6.827-54.613-6.827-81.92 0-13.653 10.24-23.893 27.307-23.893h85.333c20.48 0 40.96 10.24 51.2 30.72l116.053 235.52c-3.413 3.413 3.413 6.827 10.24 6.827zM256 277.333h-68.267c-10.24 0-17.067 6.827-17.067 17.067v85.333h-85.333c-10.24 0-17.067 6.827-17.067 17.067v68.267c0 10.24 6.827 17.067 17.067 17.067h85.333v85.333c0 10.24 6.827 17.067 17.067 17.067h68.267c10.24 0 17.067-6.827 17.067-17.067v-85.333h85.333c10.24 0 17.067-6.827 17.067-17.067v-68.267c0-10.24-6.827-17.067-17.067-17.067h-85.333v-85.333c0-10.24-6.827-17.067-17.067-17.067zM204.8 311.467h34.133v85.333c0 10.24 6.827 17.067 17.067 17.067h85.333v34.133h-85.333c-10.24 0-17.067 6.827-17.067 17.067v85.333h-34.133v-85.333c0-10.24-6.827-17.067-17.067-17.067h-85.333v-34.133h85.333c10.24 0 17.067-6.827 17.067-17.067v-85.333zM426.667 277.333h-34.133c-10.24 0-17.067 6.827-17.067 17.067s6.827 17.067 17.067 17.067h34.133c10.24 0 17.067-6.827 17.067-17.067s-6.827-17.067-17.067-17.067zM597.333 277.333h-34.133c-10.24 0-17.067 6.827-17.067 17.067s6.827 17.067 17.067 17.067h34.133c10.24 0 17.067-6.827 17.067-17.067s-6.827-17.067-17.067-17.067zM597.333 584.533c-3.413 0-10.24 0-13.653 3.413l-61.44 64.853h-20.48l-64.853-64.853c-6.827-6.827-17.067-6.827-23.893 0s-6.827 17.067 0 23.893l68.267 68.267c3.413 3.413 10.24 6.827 13.653 6.827h34.133c3.413 0 10.24-3.413 13.653-3.413l68.267-68.267c6.827-6.827 6.827-17.067 0-23.893-3.413-6.827-10.24-6.827-13.653-6.827zM512 652.8c-10.24 0-17.067 6.827-17.067 17.067 0 187.733 95.573 290.133 273.067 290.133 10.24 0 17.067-6.827 17.067-17.067s-6.827-17.067-17.067-17.067c-157.013 0-238.933-85.333-238.933-256 0-10.24-6.827-17.067-17.067-17.067zM802.133 448c-27.307 0-51.2 23.893-51.2 51.2s23.893 51.2 51.2 51.2 51.2-23.893 51.2-51.2-23.893-51.2-51.2-51.2zM802.133 516.267c-10.24 0-17.067-6.827-17.067-17.067s6.827-17.067 17.067-17.067 17.067 6.827 17.067 17.067-6.827 17.067-17.067 17.067zM802.133 311.467c-27.307 0-51.2 23.893-51.2 51.2s23.893 51.2 51.2 51.2 51.2-23.893 51.2-51.2-23.893-51.2-51.2-51.2zM802.133 379.733c-10.24 0-17.067-6.827-17.067-17.067s6.827-17.067 17.067-17.067 17.067 6.827 17.067 17.067-6.827 17.067-17.067 17.067zM733.867 379.733c-27.307 0-51.2 23.893-51.2 51.2s23.893 51.2 51.2 51.2 51.2-23.893 51.2-51.2-23.893-51.2-51.2-51.2zM733.867 448c-10.24 0-17.067-6.827-17.067-17.067s6.827-17.067 17.067-17.067 17.067 6.827 17.067 17.067-6.827 17.067-17.067 17.067zM870.4 379.733c-27.307 0-51.2 23.893-51.2 51.2s23.893 51.2 51.2 51.2 51.2-23.893 51.2-51.2-23.893-51.2-51.2-51.2zM870.4 448c-10.24 0-17.067-6.827-17.067-17.067s6.827-17.067 17.067-17.067 17.067 6.827 17.067 17.067-6.827 17.067-17.067 17.067z" />
<glyph unicode="&#xe93a;" glyph-name="gift" d="M766.913 741.42c13.097 22.097 20.862 48.695 20.926 77.101v0.019c0 69.854-48.076 140.55-140.029 140.55-42.505 0-78.628-14.771-107.401-44.038-15.463-15.667-27.217-34.458-36.418-54.079-9.015 19.692-20.559 38.341-35.696 54.007-28.624 29.278-64.603 44.11-107.048 44.11-54.477 0-87.325-24.296-105.305-44.687-22.385-25.39-34.717-59.41-34.717-95.852 0.065-28.428 7.827-55.029 21.31-77.847l-0.391 0.716h-163.37c-43.503 0-78.767-35.264-78.767-78.767v-197.541c0-43.497 35.264-78.768 78.767-78.768v-333.937c0-0.002 0-0.004 0-0.006 0-31.893 12.93-60.766 33.834-81.663v0c20.898-20.901 49.77-33.829 81.661-33.829 0.005 0 0.010 0 0.015 0h635.422c0.012 0 0.026 0 0.040 0 31.881 0 60.745 12.918 81.643 33.805l-0.001-0.001c20.904 20.898 33.834 49.772 33.834 81.665 0 0.002 0 0.003 0 0.005v0 333.889c43.503 0 78.772 35.265 78.772 78.768v212.847c0 35.088-28.444 63.532-63.532 63.533h-193.549zM587.997 868.123c16.004 16.208 35.486 24.11 59.753 24.11 53.996 0 73.172-39.693 73.172-73.694 0-20.444-6.868-40.163-18.869-54.081-13.132-15.264-31.286-23.039-54.177-23.039l-106.704 0.857c4.056 38.93 16.207 94.771 46.766 125.846h0.059zM288.104 818.54c0 20.143 6.358 38.449 18.017 51.687 12.873 14.609 31.417 22.055 55.125 22.055 24.008 0 43.262-7.775 58.863-23.761 30.282-31.105 41.838-87.715 45.444-127.1h-104.307c-57.746-0.001-73.142 48.476-73.142 77.119zM112.229 674.538h274.383v-221.384h-274.383c-0.002 0-0.005 0-0.008 0-12.524 0-23.863 5.076-32.071 13.284v0c-8.209 8.211-13.287 19.553-13.288 32.081v0 130.655c0 0.001 0 0.003 0 0.004 0 12.526 5.078 23.865 13.288 32.072v0c8.207 8.209 19.545 13.287 32.070 13.287 0.003 0 0.006 0 0.010 0v0zM145.678 386.272h240.934v-382.494h-188.801c-28.779 0-52.121 23.329-52.132 52.109v330.385zM453.492 3.778v670.76h117.030v-670.76h-117.030zM826.173 3.778h-188.783v382.494h240.903v-330.385c-0.012-28.774-23.34-52.102-52.12-52.109zM911.749 453.154h-274.359v221.384h274.359c0.001 0 0.003 0 0.005 0 12.526 0 23.865-5.078 32.073-13.287v0c8.209-8.21 13.286-19.55 13.288-32.077v0-130.655c-0.004-12.528-5.081-23.869-13.288-32.081v0c-8.21-8.208-19.55-13.284-32.076-13.284-0.001 0-0.001 0-0.002 0v0z" />
<glyph unicode="&#xe93b;" glyph-name="github1" d="M315.574 119.647q0 9.162 9.162 9.162t9.162-9.162-9.162-9.162-9.162 9.162zM273.837 129.827q0 9.162 9.162 9.162 10.18 0 10.18-9.162 0-10.18-10.18-10.18-9.162 0-9.162 10.18zM507.972 957.445q105.87 0 199.015-40.21t162.368-109.433 109.433-162.368 40.21-199.015q0-82.456-24.941-158.296t-69.223-138.445-106.379-109.942-135.391-73.804q-11.198-2.036-25.449-1.018t-17.306 18.324q-2.036 12.216-3.563 32.575t-2.036 41.737-1.018 40.719-0.509 28.503-3.563 23.414-8.144 27.485-9.162 23.923-6.617 13.743q-2.036 2.036 14.252 4.581t41.228 9.671 54.462 20.36 54.971 35.12 42.246 53.953 16.797 77.875q0 69.223-8.144 107.906t-17.306 58.025q-11.198 22.396-25.449 28.503 6.108 33.593 9.162 61.079 2.036 23.414 0.509 44.791t-12.725 27.485q-11.198 5.090-33.084-2.036t-45.3-18.324q-26.467-13.234-57.007-32.575-15.27 5.090-33.593 9.162-16.288 4.072-38.683 7.126t-49.881 3.054-52.426-3.054-44.282-6.108q-22.396-4.072-41.737-9.162-30.539 17.306-57.007 29.521-23.414 11.198-45.809 18.324t-32.575 3.054q-11.198-5.090-13.743-25.958t-1.527-45.3q1.018-28.503 5.090-63.115-14.252-15.27-25.449-36.647-10.18-18.324-17.815-44.791t-7.635-59.043q0-46.827 9.671-82.456t25.958-61.588 37.156-43.773 42.246-29.012q50.899-26.467 116.050-30.539-8.144-9.162-14.252-17.306-5.090-7.126-9.162-13.743t-4.072-9.671-0.509-7.635-1.527-9.671l-2.036-10.18q-10.18-4.072-21.378-7.126-9.162-3.054-20.36-5.090t-22.396-2.036-27.485 11.707-33.084 26.976-30.539 30.030-19.851 20.869q-6.108 5.090-16.288 8.653t-20.36 5.599-18.324 2.545-11.198-0.509q-6.108-3.054-9.162-8.653t5.090-8.653q4.072-2.036 11.707-7.635t15.779-13.234 15.27-15.27 10.18-12.725 9.162-22.396 19.851-35.629 36.647-32.575 61.588-14.252q26.467 0 40.21 0.509t20.869 1.527v-78.384q0-6.108-1.527-13.743t-5.599-13.234-11.198-8.144-18.324 0.509q-2.036 1.018-6.108 1.018-74.313 26.467-136.409 73.804t-107.397 110.451-70.75 138.954-25.449 159.314q0 105.87 40.21 199.015t109.433 162.368 162.877 109.433 199.524 40.21zM378.688 81.982q4.072-1.018 6.108-2.036 5.090-3.054-6.108-4.072v6.108zM358.329 126.773q0 10.18 9.162 10.18t9.162-10.18q0-9.162-9.162-9.162t-9.162 9.162zM177.128 228.571q0 6.108 7.126 6.108t7.126-6.108q0-7.126-7.126-7.126t-7.126 7.126zM245.333 151.205q0 9.162 9.162 9.162t9.162-9.162q0-10.18-9.162-10.18t-9.162 10.18zM206.65 213.301q7.126 0 7.126-7.126t-7.126-7.126-7.126 7.126 7.126 7.126zM216.83 179.708q0 9.162 9.162 9.162t9.162-9.162q0-10.18-9.162-10.18t-9.162 10.18z" />
<glyph unicode="&#xe93c;" glyph-name="google" d="M518.848 510.848h414.272q6.848-38.272 6.848-73.152 0-124-52-221.44t-148.288-152.288-220.864-54.848q-89.728 0-170.848 34.56t-140 93.44-93.44 140-34.56 170.848 34.56 170.848 93.44 140 140 93.44 170.848 34.56q171.424 0 294.272-114.848l-119.424-114.848q-70.272 68-174.848 68-73.728 0-136.288-37.152t-99.136-100.864-36.576-139.136 36.576-139.136 99.136-100.864 136.288-37.152q49.728 0 91.424 13.728t68.576 34.272 46.848 46.848 29.44 49.728 12.864 44.576h-249.152v150.848z" />
<glyph unicode="&#xe93d;" d="M214.101 448c0 32.512 5.547 63.701 15.36 92.928l-172.288 128.853c-33.086-64.369-52.481-140.455-52.481-221.070 0-0.25 0-0.5 0.001-0.75v0.039c0-79.701 18.859-154.88 52.395-221.611l172.203 129.067c-9.61 27.603-15.169 59.421-15.189 92.535v0.009z" />
<glyph unicode="&#xe93e;" d="M516.693 743.808c72.107 0 137.259-25.003 188.459-65.963l148.949 145.621c-90.752 77.355-207.104 125.141-337.408 125.141-202.325 0-376.235-113.28-459.52-278.827l172.373-128.853c39.68 118.016 152.832 202.88 287.147 202.88z" />
<glyph unicode="&#xe93f;" d="M516.693 152.192c-134.357 0-247.509 84.864-287.232 202.88l-172.288-128.853c83.243-165.547 257.152-278.827 459.52-278.827 124.843 0 244.053 43.392 333.568 124.757l-163.584 123.819c-46.123-28.459-104.235-43.776-170.027-43.776z" />
<glyph unicode="&#xe940;" d="M1005.397 448c0 29.568-4.693 61.44-11.648 91.008h-477.099v-193.408h274.603c-13.696-65.963-51.072-116.651-104.533-149.632l163.541-123.819c93.995 85.419 155.136 212.651 155.136 375.851z" />
<glyph unicode="&#xe941;" glyph-name="government" horiz-adv-x="1025" d="M1024.111 35.413l-42.667 128c-5.975 16.823-21.756 28.652-40.299 28.652-0.833 0-1.66-0.024-2.481-0.071l0.114 0.005h-21.333v341.333h21.333c0.582-0.028 1.265-0.045 1.951-0.045 19.010 0 35.116 12.432 40.632 29.609l0.084 0.302c1.304 3.909 2.056 8.409 2.056 13.085 0 14.249-6.985 26.866-17.717 34.616l-0.125 0.086-410.88 287.573c-11.883 8.436-26.685 13.485-42.667 13.485s-30.783-5.050-42.897-13.64l0.23 0.155-408.747-287.573c-11.091-7.813-18.248-20.565-18.248-34.988 0-23.564 19.103-42.667 42.667-42.667 0.115 0 0.23 0 0.345 0.001h21.315v-341.333h-21.333c-0.076 0-0.166 0.001-0.257 0.001-18.519 0-34.283-11.799-40.184-28.29l-0.093-0.298-42.667-128c-1.422-4.073-2.244-8.767-2.244-13.654 0-9.467 3.083-18.213 8.3-25.29l-0.083 0.117c7.794-10.85 20.352-17.852 34.549-17.92h938.678c14.208 0.068 26.766 7.070 34.473 17.793l0.087 0.127c6.062 7.314 9.74 16.795 9.74 27.134 0 4.164-0.597 8.189-1.709 11.994l0.076-0.302zM874.777 533.333v-341.333h-64v341.333zM298.777 533.333h85.333v-341.333h-85.333zM469.444 533.333h85.333v-341.333h-85.333zM640.111 533.333h85.333v-341.333h-85.333zM512.111 824.747l292.267-206.080h-584.533zM149.444 533.333h64v-341.333h-64zM102.511 64l14.933 42.667h789.333l14.933-42.667zM466.884 702.293c0-0.002 0-0.004 0-0.007 0-23.564 19.103-42.667 42.667-42.667s42.667 19.103 42.667 42.667c0 0.002 0 0.005 0 0.007v0c0 0.002 0 0.004 0 0.007 0 23.564-19.103 42.667-42.667 42.667s-42.667-19.103-42.667-42.667c0-0.002 0-0.005 0-0.007v0z" />
<glyph unicode="&#xe942;" glyph-name="hint" d="M800 334.933v177.067c0 117.333-70.4 217.6-170.667 262.4-4.267 61.867-55.467 110.933-117.333 110.933s-113.067-49.067-117.333-110.933c-100.267-44.8-170.667-145.067-170.667-262.4v-177.067c-57.6-46.933-85.333-110.933-85.333-185.6 0-17.067 14.933-32 32-32h206.933c14.933-61.867 70.4-106.667 134.4-106.667s119.467 44.8 134.4 106.667h206.933c17.067 0 32 14.933 32 32 0 76.8-27.733 138.667-85.333 185.6zM512 821.333c19.2 0 36.267-10.667 44.8-25.6-14.933 2.133-29.867 4.267-44.8 4.267s-29.867-2.133-44.8-4.267c8.533 14.933 25.6 25.6 44.8 25.6zM512 74.667c-29.867 0-55.467 17.067-66.133 42.667h134.4c-12.8-25.6-38.4-42.667-68.267-42.667zM204.8 181.333c6.4 46.933 29.867 83.2 70.4 113.067 8.533 6.4 12.8 14.933 12.8 25.6v192c0 123.733 100.267 224 224 224s224-100.267 224-224v-192c0-10.667 4.267-19.2 12.8-25.6 40.533-29.867 64-66.133 70.4-113.067h-614.4z" />
<glyph unicode="&#xe943;" glyph-name="home" d="M923.733 565.333c-85.333 70.4-206.933 174.933-362.667 309.333-27.733 23.467-70.4 23.467-98.133 0-155.733-134.4-277.333-238.933-362.667-309.333-14.933-14.933-25.6-34.133-25.6-53.333 0-38.4 32-70.4 70.4-70.4h46.933v-358.4c0-29.867 23.467-53.333 53.333-53.333h160c29.867 0 53.333 23.467 53.333 53.333v206.933h106.667v-206.933c0-29.867 23.467-53.333 53.333-53.333h160c29.867 0 53.333 23.467 53.333 53.333v358.4h46.933c38.4 0 70.4 32 70.4 70.4 0 21.333-10.667 40.533-25.6 53.333zM878.933 505.6h-57.6c-29.867 0-53.333-23.467-53.333-53.333v-358.4h-138.667v204.8c0 29.867-23.467 53.333-53.333 53.333h-128c-29.867 0-53.333-23.467-53.333-53.333v-206.933h-138.667v360.533c0 29.867-23.467 53.333-53.333 53.333h-57.6c-4.267 0-6.4 2.133-6.4 6.4 0 2.133 2.133 4.267 2.133 6.4 85.333 70.4 206.933 174.933 362.667 309.333 4.267 4.267 10.667 4.267 14.933 0 155.733-134.4 277.333-238.933 362.667-309.333 2.133-2.133 2.133-2.133 2.133-4.267 2.133-6.4-2.133-8.533-4.267-8.533z" />
<glyph unicode="&#xe944;" glyph-name="host" d="M554.667 170.667h-85.333v85.333h85.333zM810.667 874.667v-853.333h-597.333v853.333zM298.667 789.333v-64h426.667v64zM298.667 640v-64h426.667v64zM725.333 106.667v384h-426.667v-384z" />
<glyph unicode="&#xe945;" glyph-name="html5" d="M145 864l66-746.6 300.8-85.4 299.6 85.4 67.3 746.6h-733.7zM755.9 163.4l-244.1-69.6-245.2 69.6-56.7 641.2h603.8l-57.8-641.2zM281 711l1.7-24.3 22.7-253.5 319.4 0.1-11.4-118.5-102.4-27.7v-0.2h-0.8l-102.4 27.7-6.5 73.2h-91l11.3-144.7 188.6-52h1.7v0.4l187.7 51.7 1.7 16.3 21.2 242.2 3.2 24.3-335.8-0.2-8.2 94.2h352.1l1.7 19.5 4.8 47.2 1.7 24.3h-231z" />
<glyph unicode="&#xe946;" glyph-name="import" d="M689.701 89.241h-497.067c-6.4 0-10.667 4.267-10.667 10.667v682.667c0 6.4 4.267 10.667 10.667 10.667h309.333v-160c0-40.533 34.133-74.667 74.667-74.667h160v-38.4c0-17.067 14.933-32 32-32s32 14.933 32 32v134.4c0 8.533-4.267 17.067-8.533 23.467l-170.667 170.667c-6.4 6.4-14.933 8.533-23.467 8.533h-405.333c-40.533 0-74.667-34.133-74.667-74.667v-682.667c0-40.533 34.133-74.667 74.667-74.667h497.067c17.067 0 32 14.933 32 32s-14.933 32-32 32zM736.634 639.641v-17.067h-160c-6.4 0-10.667 4.267-10.667 10.667v160h19.2zM875.301 355.907h-253.867l51.2 51.2c12.8 12.8 12.8 32 0 44.8s-32 12.8-44.8 0l-106.667-106.667c-12.8-12.8-12.8-32 0-44.8l106.667-106.667c6.4-6.4 14.933-8.533 23.467-8.533s17.067 2.133 23.467 8.533c12.8 12.8 12.8 32 0 44.8l-53.333 53.333h253.867c17.067 0 32 14.933 32 32s-14.933 32-32 32z" />
<glyph unicode="&#xe947;" glyph-name="information" d="M881.9 744.7h-102.8v75.7c0 40.2-32.7 72.9-72.9 72.9h-565.2c-40.2 0-72.9-32.7-72.9-72.9v-735.5c0-40.2 32.7-72.9 72.9-72.9h740.9c40.2 0 72.9 32.7 72.9 72.9v586.9c0 40.2-32.7 72.9-72.9 72.9zM608.7 82h-467.7c-1.6 0-2.9 1.3-2.9 2.9v735.5c0 1.6 1.3 2.9 2.9 2.9h565.2c1.6 0 2.9-1.3 2.9-2.9v-735.5c0-1.6-1.3-2.9-2.9-2.9h-97.5zM884.8 84.9c0-1.6-1.3-2.9-2.9-2.9h-102.8c0 1 0.1 2 0.1 2.9v589.8h102.8c1.6 0 2.9-1.3 2.9-2.9v-586.9zM580.7 689h-331c-19.3 0-35-15.7-35-35s15.7-35 35-35h331c19.3 0 35 15.7 35 35s-15.7 35-35 35zM580.7 485.4h-331c-19.3 0-35-15.7-35-35s15.7-35 35-35h331c19.3 0 35 15.7 35 35s-15.7 35-35 35zM580.7 281.7h-331c-19.3 0-35-15.7-35-35s15.7-35 35-35h331c19.3 0 35 15.7 35 35 0 19.4-15.7 35-35 35z" />
<glyph unicode="&#xe948;" glyph-name="internet" d="M825.6 139.52c-24.848 19.568-52.805 37.571-82.412 52.819l-2.921 1.367c25.477 68.873 40.973 148.418 42.655 231.355l0.012 0.751h170.667c-6.308-112.345-54.025-212.462-127.993-286.287l-0.007-0.007zM629.333 23.893c32.725 28.926 59.737 63.431 79.723 102.152l0.917 1.954c22.833-11.555 42.248-23.462 60.609-36.736l-1.302 0.896c-39.793-29.492-86.247-52.853-136.42-67.492l-3.1-0.775zM554.667 57.6v115.627c34.387-3.218 65.973-9.854 96.134-19.65l-3.121 0.877c-19.823-42.014-52.032-75.461-91.874-96.31l-1.14-0.543zM554.667 425.813h156.587c-1.437-73.821-14.131-144.192-36.428-210.137l1.441 4.911c-35.593 12.333-76.932 21.116-119.765 24.626l-1.835 0.121zM554.667 650.24c44.64 3.563 85.985 12.35 125.158 25.81l-3.558-1.063c18.096-52.354 30.162-112.908 33.63-175.754l0.077-1.74h-155.307zM554.667 837.973c40.924-21.289 73.118-54.584 92.477-95.177l0.537-1.25c-27.046-8.931-58.633-15.566-91.256-18.64l-1.757-0.134zM772.267 803.413c-17.072-12.416-36.489-24.324-56.823-34.69l-2.484-1.15c-20.932 40.661-47.939 75.162-80.27 103.785l-0.37 0.322c52.788-15.378 98.807-38.586 139.42-68.675l-1.18 0.835zM951.040 497.493h-170.667c-4.683 74.45-19.934 143.913-44.301 208.921l1.635-4.974c32.522 16.544 60.483 34.551 86.418 55.012l-1.085-0.825c67.65-67.14 113.507-156.154 126.070-255.545l0.223-2.162zM481.707 721.493c-37.636 2.654-72.656 9.639-105.923 20.501l3.096-0.875c20.655 45.38 56.81 80.705 101.553 99.784l1.274 0.483zM481.707 497.493h-166.4c3.647 64.618 15.705 125.161 35.126 182.301l-1.419-4.808c38.817-13.483 83.752-22.625 130.377-25.527l1.463-0.073v-151.893zM481.707 245.76c-48.071-2.925-93.011-12.070-135.412-26.669l3.572 1.069c-20.856 61.035-33.55 131.405-34.976 204.537l-0.011 0.69h166.827zM481.707 53.76c-45.97 19.636-82.1 54.936-102.325 99.046l-0.501 1.22c30.171 9.988 65.191 16.973 101.43 19.547l1.396 0.080zM254.293 91.733h1.707c17.072 12.416 36.489 24.324 56.823 34.69l2.484 1.15c20.932-40.661 47.939-75.162 80.27-103.785l0.37-0.322c-54.401 15.144-101.901 38.701-143.704 69.537l1.197-0.843zM72.533 425.813h170.667c1.743-83.697 17.234-163.237 44.297-237.201l-1.63 5.094c-32.522-16.544-60.483-34.551-86.418-55.012l1.085 0.825c-73.975 73.832-121.692 173.948-127.948 285.145l-0.052 1.148zM198.4 756.48c25.001-18.96 53.257-36.428 83.125-51.119l3.061-1.361c-22.733-60.034-37.983-129.497-42.561-201.858l-0.106-2.089h-170.667c13.324 101.167 59.418 189.692 127.094 256.374l0.053 0.052zM394.667 872.107c-32.725-28.926-59.737-63.431-79.723-102.152l-0.917-1.954c-22.313 11.6-41.3 23.493-59.257 36.704l1.231-0.864c39.435 29.364 85.441 52.704 135.136 67.475l3.104 0.792zM512 960c-282.77 0-512-229.23-512-512s229.23-512 512-512c282.77 0 512 229.23 512 512v0c0 282.77-229.23 512-512 512v0z" />
<glyph unicode="&#xe949;" glyph-name="java" d="M683.478 334.208c19.6 13.4 46.799 25 46.799 25s-77.399-14-154.398-20.4c-94.199-7.8-195.397-9.4-246.197-2.6-120.198 16 65.999 60.199 65.999 60.199s-72.199 4.8-161.198-37.999c-104.999-50.799 259.997-73.999 448.994-24.2zM512.68 398.407c-37.999 85.399-166.198 160.398 0 291.596 207.317 163.598 100.999 269.996 100.999 269.996 42.999-168.998-151.198-220.197-221.397-325.196-47.799-71.799 23.4-148.798 120.398-236.397zM741.877 750.803c0.2 0-350.395-87.599-182.998-280.396 49.399-56.799-13-107.999-13-107.999s125.398 64.799 67.799 145.798c-53.799 75.599-94.999 113.199 128.198 242.597zM729.677 209.81c-1.148-1.981-2.474-3.689-3.998-5.198l-0.002-0.002c256.597 67.399 162.198 237.797 39.599 194.597-6.765-2.532-12.356-6.897-16.327-12.493l-0.072-0.107c6.135 2.317 13.516 4.393 21.115 5.858l0.885 0.142c61.999 13 150.998-82.999-41.199-182.798zM823.996 85.212s29-23.8-31.8-42.399c-115.798-35-481.594-45.599-583.192-1.4-36.6 15.8 32 37.999 53.599 42.599 22.4 4.8 35.4 4 35.4 4-40.599 28.6-262.597-56.199-112.799-80.399 408.475-66.399 744.79 29.8 638.792 77.599zM376.882 168.010c-157.398-43.999 95.799-134.798 296.196-48.999-21.878 8.57-40.443 17.84-58.050 28.53l1.651-0.931c-89.399-17-130.798-18.2-211.997-9-66.999 7.6-27.8 30.4-27.8 30.4zM736.477-26.387c-157.398-29.6-351.595-26.2-466.594-7.2 0 0.2 23.6-19.4 144.798-27.2 184.398-11.8 467.594 6.6 474.194 93.799 0 0-12.8-33-152.398-59.399zM649.278 254.009c-118.398-22.8-186.998-22.2-273.596-13.2-66.999 7-23.2 39.399-23.2 39.399-173.598-57.599 96.399-122.798 338.996-51.799-16.381 5.882-30.438 14.596-42.267 25.663l0.068-0.063z" />
<glyph unicode="&#xe94a;" d="M558.080 487.936c48.128-53.248-13.312-103.424-13.312-103.424s119.808 61.44 65.536 139.264c-51.2 71.68-91.136 107.52 122.88 232.448 0-1.024-335.872-86.016-175.104-268.288z" />
<glyph unicode="&#xe94b;" d="M610.304 954.88s101.376-101.376-96.256-258.048c-157.696-125.952-35.84-197.632 0-280.576-93.184 83.968-159.744 157.696-114.688 226.304 64.512 101.376 251.904 150.528 210.944 312.32z" />
<glyph unicode="&#xe94c;" d="M720.896 202.24c183.296 95.232 98.304 188.416 39.936 175.104-15.36-3.072-21.504-5.12-21.504-5.12s5.12 8.192 16.384 11.264c117.76 40.96 207.872-120.832-37.888-186.368-1.024 0 2.048 3.072 3.072 5.12zM382.976 163.328s-37.888-21.504 26.624-29.696c76.8-8.192 117.76-8.192 202.752 8.192 0 0 23.552-15.36 53.248-26.624-191.488-80.896-433.152 5.12-282.624 48.128zM359.424 269.824s-43.008-31.744 23.552-37.888c82.944-8.192 149.504-10.24 261.12 13.312 0 0 16.384-16.384 40.96-24.576-231.424-68.608-490.496-5.12-325.632 49.152z" />
<glyph unicode="&#xe94d;" d="M811.008 83.456s27.648-23.552-31.744-40.96c-111.616-34.816-460.8-45.056-558.080-2.048-34.816 15.36 31.744 35.84 51.2 40.96 21.504 5.12 34.816 3.072 34.816 3.072-38.912 28.672-251.904-52.224-107.52-75.776 390.144-62.464 712.704 28.672 611.328 74.752zM400.384 381.44s-178.176-43.008-63.488-56.32c49.152-6.144 146.432-5.12 235.52 3.072 73.728 6.144 147.456 19.456 147.456 19.456s-26.624-11.264-45.056-24.576c-181.248-48.128-530.432-26.624-430.080 23.552 88.064 39.936 155.648 34.816 155.648 34.816z" />
<glyph unicode="&#xe94e;" d="M418.816-55.808c176.128-11.264 446.464 6.144 453.632 90.112 0 0-13.312-31.744-146.432-56.32-150.528-27.648-336.896-24.576-446.464-6.144 2.048-1.024 24.576-20.48 139.264-27.648z" />
<glyph unicode="&#xe94f;" glyph-name="js" d="M238.592 804.352h160.768v-450.56c0-203.776-97.28-274.432-252.928-274.432-37.888 0-87.040 6.144-118.784 17.408l18.432 130.048c22.528-7.168 51.2-12.288 82.944-12.288 67.584 0 110.592 30.72 110.592 141.312v448.512h-1.024zM539.648 256.512c41.984-22.528 110.592-44.032 179.2-44.032 73.728 0 113.664 30.72 113.664 78.848 0 43.008-33.792 69.632-119.808 99.328-118.784 40.96-197.632 107.52-197.632 211.968 0 121.856 102.4 214.016 270.336 214.016 81.92 0 139.264-16.384 182.272-35.84l-35.84-129.024c-27.648 13.312-79.872 33.792-148.48 33.792-69.632 0-103.424-32.768-103.424-68.608 0-45.056 38.912-65.536 132.096-101.376 125.952-46.080 184.32-112.64 184.32-214.016 0-119.808-91.136-221.184-286.72-221.184-81.92 0-161.792 22.528-201.728 44.032l31.744 132.096z" />
<glyph unicode="&#xe950;" glyph-name="json" d="M928 504v141.5c0 17-6.7 33.3-18.7 45.3l-250.6 250.5c-12 12-28.2 18.7-45.2 18.7h-469.5c-26.5 0-48-21.5-48-48v-408c0-4.4-3.6-8-8-8h-72c-8.8 0-16-7.2-16-16v-400c0-8.8 7.2-16 16-16h80c0-70.7 57.3-128 128-128h656c26.5 0 48 21.5 48 48v64c0 8.8 7.2 16 16 16h64c8.8 0 16 7.2 16 16v400c0 8.8-7.2 16-16 16h-72c-4.4 0-8 3.6-8 8zM704 805.5l69.5-69.5h-65.5c-2.2 0-4 1.8-4 4v65.5zM168 896h408c35.3 0 64-28.7 64-64v-144c0-8.8 7.2-16 16-16h144c35.3 0 64-28.7 64-64v-104c0-4.4-3.6-8-8-8h-688c-4.4 0-8 3.6-8 8v384c0 4.4 3.6 8 8 8zM856 0h-632c-35.3 0-64 28.7-64 64h696c4.4 0 8-3.6 8-8v-48c0-4.4-3.6-8-8-8zM952 128h-880c-4.4 0-8 3.6-8 8v288c0 4.4 3.6 8 8 8h880c4.4 0 8-3.6 8-8v-288c0-4.4-3.6-8-8-8zM249.7 260.5c0-27.6-6.4-48.7-19.1-63.5-12.7-14.6-30.9-22-54.6-22-10.5 0-20.3 1.8-29.2 5.4v41.9c7.7-5.8 16.5-8.8 26.4-8.8 21.4 0 32.1 16.2 32.1 48.6v125.2h44.5v-126.8zM286.4 231.2c16.8-13.9 35.9-20.9 57.3-20.9 12.1 0 21.2 2.1 27.3 6.3s9.2 9.5 9.2 16.1c0 5.7-2.4 11-7.3 16s-17.6 11.9-38.4 20.5c-32.6 13.8-48.9 33.9-48.9 60.4 0 19.4 7.4 34.5 22.2 45.2s34.3 16.1 58.7 16.1c20.4 0 37.5-2.7 51.3-7.9v-41.8c-14 9.5-30.4 14.3-49.2 14.3-11 0-19.7-2-26.3-6s-9.8-9.4-9.8-16.1c0-5.4 2.2-10.4 6.7-14.9s15.6-10.7 33.3-18.4c20.7-8.9 35-18.3 42.8-28.2s11.7-21.6 11.7-35.3c0-20-7.1-35.3-21.3-45.8s-34.4-15.8-60.5-15.8c-23.9 0-43.5 3.9-58.7 11.6v44.6zM448.8 280.2c0 32.7 9.5 59.3 28.6 79.8s44.3 30.8 75.6 30.8c29.8 0 53.8-9.9 72-29.8 18.2-19.8 27.3-45.4 27.3-76.5 0-32.5-9.5-58.9-28.4-79.1-18.9-20.3-43.7-30.4-74.3-30.4-29.9 0-54.2 9.8-72.9 29.4-18.5 19.6-27.9 44.9-27.9 75.8zM495.6 282.6c0-20.3 4.9-36.9 14.7-49.8s23.2-19.3 40.3-19.3c17.4 0 31 6.2 40.7 18.5s14.5 28.9 14.5 49.8c0 21.7-4.7 38.9-14.1 51.5s-22.7 18.9-39.9 18.9c-17.4 0-31.1-6.5-41.2-19.4-10-12.9-15-29.6-15-50.2zM873.2 178.6h-45.5l-88.4 135c-4.6 7-7.9 12.7-10 17h-0.7c0.8-7.2 1.2-18.3 1.2-33.3v-118.7h-42.2v208.7h48.5l85.1-131.2c5.7-8.7 9.1-14.2 10.4-16.6h0.7c-0.9 5-1.3 14.6-1.3 28.8v119h42.2v-208.7z" />
<glyph unicode="&#xe951;" d="M85.033 250.982c0-108.075 87.612-195.686 195.686-195.686s195.686 87.612 195.686 195.686v0c0 108.075-87.612 195.686-195.686 195.686s-195.686-87.612-195.686-195.686v0z" />
<glyph unicode="&#xe952;" d="M547.553 250.982c0-108.075 87.612-195.686 195.686-195.686s195.686 87.612 195.686 195.686v0c0 108.075-87.612 195.686-195.686 195.686s-195.686-87.612-195.686-195.686v0z" />
<glyph unicode="&#xe953;" d="M314.921 645.018c0-108.075 87.612-195.686 195.686-195.686s195.686 87.612 195.686 195.686v0c0 108.075-87.612 195.686-195.686 195.686s-195.686-87.612-195.686-195.686v0z" />
<glyph unicode="&#xe954;" glyph-name="keyboard" d="M896 768h-704c-35.346 0-64-28.654-64-64v0-448c0-35.346 28.654-64 64-64v0h704c35.346 0 64 28.654 64 64v0 448c0 35.346-28.654 64-64 64v0zM896 256h-704v448h704v-448zM704 640h-64v-64h64v64zM640 512h-64v-64h64v64zM768 640h64v-64h-64v64zM832 384h-64v-64h64v64zM384 384h320v-64h-320v64zM832 512h-128v-64h128v64zM512 640h64v-64h-64v64zM512 512h-64v-64h64v64zM256 384h64v-64h-64v64zM256 640h64v-64h-64v64zM448 640h-64v-64h64v64zM256 512h128v-64h-128v64z" />
<glyph unicode="&#xe955;" glyph-name="lab1" d="M645.973 665.6c-18.347 0-33.707 15.787-33.707 34.987s14.933 34.987 33.707 34.987h167.68c18.347 0 33.707-15.787 33.707-34.987s-14.933-34.987-33.707-34.987v-136.96c97.707-35.84 167.68-132.693 167.68-246.187 0-72.533-29.013-142.080-80.64-191.573h46.933c18.347 0 33.707-15.787 33.707-34.987s-14.933-34.56-33.707-34.56h-871.253c-18.773 0-33.707 15.787-33.707 34.987s14.933 34.987 33.707 34.987h18.347c-5.547 27.733 2.133 55.893 20.48 76.8l195.84 223.147v340.053c-27.733 18.773-40.107 54.613-30.293 87.893 9.387 32.853 38.827 55.467 72.107 55.467h184.32c33.28 0 62.72-22.613 72.107-55.467s-2.56-68.693-30.293-87.893v-239.787c20.48 15.787 43.093 28.587 66.987 37.547v136.533zM746.667 665.6h-33.707v-186.027l-44.8-16.213c-36.267-13.227-67.413-37.973-89.6-70.4v-1.707l195.84-223.147c15.36-17.493 23.040-40.533 21.76-64 68.693 27.733 117.333 97.28 117.333 178.347 0 81.92-49.92 154.027-122.88 180.48l-44.8 16.213v186.453zM164.693 120.747c-6.4-7.253-5.973-19.2 0.853-25.6 2.56-2.56 5.973-4.267 9.387-4.267h540.16c7.68 0 14.933 7.253 14.933 17.493 0 4.693-1.707 9.387-4.693 12.373l-213.333 243.2v404.48l29.867 20.48c2.987 2.133 4.693 5.973 3.413 9.813-0.865 3.693-4.13 6.4-8.028 6.4-0.028 0-0.055 0-0.083 0h-184.316c-3.84 0-6.827-2.56-8.107-6.4-1.28-3.413 0.427-7.68 3.413-9.813l29.867-20.48v-404.48l-213.333-243.2z" />
<glyph unicode="&#xe956;" d="M0 960h1024v-1024h-1024z" />
<glyph unicode="&#xe957;" d="M785.091 662.139l-0.010 176.404-253.614-87.183 253.624-89.221zM499.302 762.358l-266.721 95.242v-184.166l266.721 88.924zM334.182 622.623l44.462 12.708v-53.975l95.263 34.918v-171.469l-38.113-12.698v25.385l-63.508-25.385 0.276-95.416-38.38-12.554-0.287 94.444-63.212-24.576 0.010-19.057-38.124-12.698 0.010 171.459 101.601 31.754v57.16zM435.794 562.289l-57.149-22.221v-63.508l57.149 19.057v66.673zM270.684 438.456l63.508 22.231-0.010 66.673-63.498-22.221v-66.683zM518.359 746.865l-342.938-117.883v-469.965l342.938 114.33v473.518zM527.913 257.454c-123.382-41.308-248.248-82.534-371.548-123.832l-0.010 508.058 647.793 215.921v-202.168l63.508-20.101-0.010-489.011-339.732 111.135zM794.563 277.627c-14.93 53.985-29.901 108.196-44.902 162.55-15.053 54.497-30.116 109.24-45.261 164.157-16.22 6.287-32.481 12.605-48.814 18.944-14.858-43.612-29.768-87.368-44.698-131.215l-45.056-132.28c16.579-5.97 33.167-11.93 49.684-17.859 6.4 20.173 12.8 40.366 19.19 60.549 30.495-11.162 60.979-22.323 91.464-33.475 6.502-24.658 12.995-49.285 19.517-73.83 16.323-5.868 32.635-11.704 48.876-17.541zM711.301 424.141c-10.547 40.294-21.105 80.599-31.58 120.904-10.312-32.563-20.603-65.147-30.904-97.731 20.838-7.711 41.656-15.452 62.484-23.173zM680.765 112.036c-121.211-75.776-241.603-85.187-365.384-6.513l-6.625-10.353c118.456-75.264 236.339-74.076 357.652-6.011 7.107 4.035 14.080 8.192 20.992 12.513l14.039-21.924 31.877 58.573-66.54-4.424 13.988-21.862z" />
<glyph unicode="&#xe958;" glyph-name="left" d="M670.978 151.046c-5.301 0-10.596 2.046-14.604 6.127l-287.684 292.96c-7.818 7.961-7.818 20.718 0 28.679l287.684 292.96c7.92 8.066 20.877 8.182 28.942 0.263s8.182-20.877 0.264-28.942l-273.603-278.62 273.603-278.621c7.918-8.065 7.802-21.023-0.264-28.942-3.985-3.913-9.163-5.865-14.339-5.865z" />
<glyph unicode="&#xe959;" glyph-name="left-arrow" d="M874.667 480h-650.667l290.133 309.333c12.8 12.8 10.667 34.133-2.133 44.8s-32 10.667-44.8-2.133l-341.333-362.667c-2.133-2.133-4.267-6.4-6.4-8.533-2.133-4.267-2.133-6.4-2.133-10.667s0-8.533 2.133-10.667c2.133-4.267 4.267-6.4 6.4-8.533l341.333-362.667c6.4-6.4 14.933-10.667 23.467-10.667s14.933 2.133 21.333 8.533c12.8 12.8 12.8 32 2.133 44.8l-290.133 305.067h650.667c17.067 0 32 14.933 32 32s-14.933 32-32 32z" />
<glyph unicode="&#xe95a;" glyph-name="left-bold" d="M384 448l347.733 309.333c17.067 14.933 19.2 42.667 4.267 59.733s-42.667 19.2-59.733 4.267l-384-341.333c-10.667-8.533-14.933-19.2-14.933-32s4.267-23.467 14.933-32l384-341.333c8.533-6.4 19.2-10.667 27.733-10.667 12.8 0 23.467 4.267 32 14.933 14.933 17.067 14.933 44.8-4.267 59.733l-347.733 309.333z" />
<glyph unicode="&#xe95b;" glyph-name="left-filling" d="M268.8 480l364.8 330.667c17.067 14.933 44.8 14.933 59.733-2.133 6.4-8.533 10.667-19.2 10.667-29.867v-661.333c0-23.467-19.2-42.667-42.667-42.667-10.667 0-21.333 4.267-27.733 10.667l-362.667 330.667c-17.067 14.933-19.2 42.667-2.133 59.733-2.133 2.133 0 2.133 0 4.267z" />
<glyph unicode="&#xe95c;" glyph-name="link" d="M779.947 776.747c-7.775 7.774-18.515 12.582-30.379 12.582s-22.604-4.808-30.379-12.582l-151.936-151.936c-7.786-7.777-12.603-18.526-12.603-30.4s4.817-22.623 12.603-30.4v0l60.757-60.757c7.777-7.786 18.526-12.603 30.4-12.603s22.623 4.817 30.4 12.603v0l151.936 151.936c7.786 7.777 12.603 18.526 12.603 30.4s-4.817 22.623-12.603 30.4v0l-60.757 60.757zM840.405 836.992l60.587-60.587c23.279-23.273 37.677-55.427 37.677-90.944s-14.399-67.671-37.677-90.944l-151.509-151.509c-23.273-23.279-55.427-37.677-90.944-37.677s-67.671 14.399-90.944 37.677l-60.587 60.587c-23.279 23.273-37.677 55.427-37.677 90.944s14.399 67.671 37.677 90.944l151.509 151.509c23.273 23.279 55.427 37.677 90.944 37.677s67.671-14.399 90.944-37.677v0zM395.947 392.747c-7.777 7.786-18.526 12.603-30.4 12.603s-22.623-4.817-30.4-12.603v0l-151.936-151.936c-7.786-7.777-12.603-18.526-12.603-30.4s4.817-22.623 12.603-30.4v0l60.757-60.757c7.777-7.786 18.526-12.603 30.4-12.603s22.623 4.817 30.4 12.603v0l151.936 151.936c7.786 7.777 12.603 18.526 12.603 30.4s-4.817 22.623-12.603 30.4v0l-60.757 60.757zM456.363 452.992l60.587-60.587c23.279-23.273 37.677-55.427 37.677-90.944s-14.399-67.671-37.677-90.944l-151.509-151.509c-23.273-23.279-55.427-37.677-90.944-37.677s-67.671 14.399-90.944 37.677l-60.587 60.587c-23.279 23.273-37.677 55.427-37.677 90.944s14.399 67.671 37.677 90.944l151.509 151.509c23.273 23.279 55.427 37.677 90.944 37.677s67.671-14.399 90.944-37.677v0zM440.875 320l-56.875 56.875 199.125 199.125 56.875-56.875z" />
<glyph unicode="&#xe95d;" glyph-name="linux" d="M452 725.143q-6.286-0.571-8.857-6t-4.857-5.429q-2.857-0.571-2.857 2.857 0 6.857 10.857 8.571h5.714zM501.714 717.143q-2.286-0.571-6.571 3.714t-10 2.571q13.714 6.286 18.286-1.143 1.714-3.429-1.714-5.143zM301.143 473.143q-2.286 0.571-3.429-1.714t-2.571-7.143-3.143-7.714-5.714-7.429q-5.714-6.286-0.571-6.857 2.286-0.571 7.143 4t7.143 10.286q0.571 1.714 1.143 4t1.143 3.429 0.857 2.571 0.286 2.286v1.714l-0.571 1.429-1.714 1.143zM789.714 268q0 10.286-31.429 24 2.286 8.571 4.286 15.714t2.857 14.857 1.714 12.286 0.286 12.857-0.571 11.143-2 12.571-2.286 11.714-2.857 14.286-3.143 15.143q-5.714 27.429-26.857 58.857t-41.143 42.857q13.714-11.429 32.571-47.429 49.714-92.571 30.857-158.857-6.286-22.857-28.571-24-17.714-2.286-22 10.571t-4.571 47.714-6.571 61.143q-5.143 22.286-11.143 39.429t-11.143 26-8.857 14-7.429 8.571-4.286 4q-8 35.429-17.714 58.857t-16.857 32-13.429 18.857-8.571 22.857q-2.286 12 3.429 30.571t2.571 28.286-25.429 14.286q-8.571 1.714-25.429 10.286t-20.286 9.143q-4.571 0.571-6.286 14.857t4.571 29.143 20.571 15.429q21.143 1.714 29.143-17.143t2.286-33.143q-6.286-10.857-1.143-15.143t17.143-0.286q7.429 2.286 7.429 20.571v21.143q-2.857 17.143-7.714 28.571t-12 17.429-13.429 8.571-15.429 4.286q-61.143-4.571-50.857-76.571 0-8.571-0.571-8.571-5.143 5.143-16.857 6t-18.857-0.286-8.857 2.857q0.571 32.571-9.143 51.429t-25.714 19.429q-15.429 0.571-23.714-15.714t-9.429-34q-0.571-8.571 2-21.143t7.429-21.429 8.857-7.714q5.714 1.714 9.143 8 2.286 5.143-4 4.571-4 0-8.857 8.286t-5.429 19.143q-0.571 12.571 5.143 21.143t19.429 8q9.714 0 15.429-12t5.429-22.286-0.857-12.571q-12.571-8.571-17.714-16.571-4.571-6.857-15.714-13.429t-11.714-7.143q-7.429-8-8.857-15.429t4.286-10.286q8-4.571 14.286-11.143t9.143-10.857 10.571-7.429 20.286-3.714q26.857-1.143 58.286 8.571 1.143 0.571 13.143 4t19.714 6 16.857 7.429 12 10q5.143 8 11.429 4.571 2.857-1.714 3.714-4.857t-1.714-6.857-9.429-5.429q-11.429-3.429-32.286-12.286t-26-11.143q-25.143-10.857-40-13.143-14.286-2.857-45.143 1.143-5.714 1.143-5.143-1.143t9.714-10.857q14.286-13.143 38.286-12.571 9.714 0.571 20.571 4t20.571 8 19.143 10 17.143 9.714 14 6.857 10 1.429 4.857-6.286q0-1.143-0.571-2.571t-2.286-2.857-3.429-2.571-4.857-2.857-5.143-2.571-5.714-2.857-5.429-2.571q-16-8-38.571-25.143t-38-24.571-28-0.571q-12 6.286-36 41.714-12.571 17.714-14.286 12.571-0.571-1.714-0.571-5.714 0-14.286-8.571-32.286t-16.857-31.714-12-33.143 6.571-36q-13.143-3.429-35.714-51.429t-27.143-80.571q-1.143-10.286-0.857-39.429t-3.143-33.714q-4.571-13.714-16.571-1.714-18.286 17.714-20.571 53.714-1.143 16 2.286 32 2.286 10.857-0.571 10.286-1.143-0.571-2.286-2.857-20.571-37.143 5.714-94.857 2.857-6.857 14.286-16t13.714-11.429q11.429-13.143 59.429-51.714t53.143-43.714q9.143-8.571 10-21.714t-8-24.571-26-13.143q4.571-8.571 16.571-25.429t16-30.857 4-40.286q26.286 13.714 4 52.571-2.286 4.571-6 9.143t-5.429 6.857-1.143 3.429q1.714 2.857 7.429 5.429t11.429-1.429q26.286-29.714 94.857-20.571 76 8.571 101.143 49.714 13.143 21.714 19.429 17.143 6.857-3.429 5.714-29.714-0.571-14.286-13.143-52.571-5.143-13.143-3.429-21.429t13.714-8.857q1.714 10.857 8.286 44t7.714 51.429q1.143 12-3.714 42t-4.286 55.429 13.143 40.286q8.571 10.286 29.143 10.286 0.571 21.143 19.714 30.286t41.429 6 34.286-12.857zM430.857 740.571q1.714 9.714-1.429 17.143t-6.571 8.571q-5.143 1.143-5.143-4 1.143-2.857 2.857-3.429 5.714 0 4-8.571-1.714-11.429 4.571-11.429 1.714 0 1.714 1.714zM670.286 628q-1.143 4.571-3.714 6.571t-7.429 2.857-8.286 3.143q-2.857 1.714-5.429 4.571t-4 4.571-3.143 3.714-2.286 2.286-2.286-0.857q-8-9.143 4-24.857t22.286-18q5.143-0.571 8.286 4.571t2 11.429zM568.571 749.714q0 6.286-2.857 11.143t-6.286 7.143-5.143 1.714q-3.429 0-4.571-1.143t0-2.286 2.857-1.714q8-2.286 10.286-17.714 0-1.714 4.571 1.143 1.143 1.143 1.143 1.714zM599.429 882.857q0 1.143-1.429 2.857t-5.143 4-5.429 3.429q-8.571 8.571-13.714 8.571-5.143-0.571-6.571-4.286t-0.571-7.429-0.286-7.143q-0.571-2.286-3.429-6t-3.429-5.143 1.714-4.857q2.286-1.714 4.571 0t6.286 5.143 8.571 5.143q0.571 0.571 5.143 0.571t8.571 1.143 5.143 4zM922.286 116.571q11.429-6.857 17.714-14t6.857-13.714-1.429-12.857-8.857-12.571-13.429-11.143-17.143-10.571-18-9.429-18.286-8.857-15.429-7.429q-21.714-10.857-48.857-32t-43.143-36.571q-9.714-9.143-38.857-11.143t-50.857 8.286q-10.286 5.143-16.857 13.429t-9.429 14.571-12.571 11.143-26.857 5.429q-25.143 0.571-74.286 0.571-10.857 0-32.571-0.857t-33.143-1.429q-25.143-0.571-45.429-8.571t-30.571-17.143-24.857-16.286-30.571-6.571q-16.571 0.571-63.429 17.714t-83.429 24.571q-10.857 2.286-29.143 5.429t-28.571 5.143-22.571 5.429-19.143 8.286-9.714 11.143q-5.714 13.143 4 38t10.286 31.143q0.571 9.143-2.286 22.857t-5.714 24.286-2.571 20.857 6 15.429q8 6.857 32.571 8t34.286 6.857q17.143 10.286 24 20t6.857 29.143q12-41.714-18.286-60.571-18.286-11.429-47.429-8.571-19.429 1.714-24.571-5.714-7.429-8.571 2.857-32.571 1.143-3.429 4.571-10.286t4.857-10.286 2.571-9.714 0.571-12.571q0-8.571-9.714-28t-8-27.429q1.714-9.714 21.143-14.857 11.429-3.429 48.286-10.571t56.857-11.714q13.714-3.429 42.286-12.571t47.143-13.143 31.714-2.286q24.571 3.429 36.857 16t13.143 27.429-4.286 33.429-10.857 29.714-11.429 20.857q-69.143 108.571-96.571 138.286-38.857 42.286-64.571 22.857-6.286-5.143-8.571 8.571-1.714 9.143-1.143 21.714 0.571 16.571 5.714 29.714t13.714 26.857 12.571 24q4.571 12 15.143 41.143t16.857 44.571 17.143 34.857 22.286 30.857q62.857 81.714 70.857 111.429-6.857 64-9.143 177.143-1.143 51.429 13.714 86.571t60.571 59.714q22.286 12 59.429 12 30.286 0.571 60.571-7.714t50.857-23.714q32.571-24 52.286-69.429t16.857-84.286q-2.857-54.286 17.143-122.286 19.429-64.571 76-124.571 31.429-33.714 56.857-93.143t34-109.143q4.571-28 2.857-48.286t-6.857-31.714-11.429-12.571q-5.714-1.143-13.429-10.857t-15.429-20.286-23.143-19.143-34.857-8q-10.286 0.571-18 2.857t-12.857 7.714-7.714 8.857-6.571 11.714-5.143 11.143q-12.571 21.143-23.429 17.143t-16-28 4-55.429q11.429-40 0.571-111.429-5.714-37.143 10.286-57.429t41.714-18.857 48.571 20.286q33.714 28 51.143 38t59.143 24.286q30.286 10.286 44 20.857t10.571 19.714-14.286 16.286-29.429 13.429q-18.857 6.286-28.286 27.429t-8.571 41.429 8.857 27.143q0.571-17.714 4.571-32.286t8.286-23.143 11.714-16.286 12-10.857 12.286-7.429 9.429-5.429z" />
<glyph unicode="&#xe95e;" glyph-name="location" d="M512 885.333c-194.133 0-352-160-352-354.133 0-264.533 320-484.267 334.933-492.8 6.4-4.267 10.667-6.4 17.067-6.4s12.8 2.133 17.067 6.4c12.8 8.533 334.933 228.267 334.933 492.8 0 194.133-157.867 354.133-352 354.133zM512 102.4c-66.133 49.067-288 228.267-288 426.667 0 160 130.133 290.133 288 290.133s288-130.133 288-290.133c0-196.267-221.867-377.6-288-426.667zM512 650.667c-76.8 0-138.667-61.867-138.667-138.667s61.867-138.667 138.667-138.667 138.667 61.867 138.667 138.667-61.867 138.667-138.667 138.667zM512 437.333c-40.533 0-74.667 34.133-74.667 74.667s34.133 74.667 74.667 74.667 74.667-34.133 74.667-74.667-34.133-74.667-74.667-74.667z" />
<glyph unicode="&#xe95f;" glyph-name="lock" d="M777.472 524.8h37.925c10.203-0.146 19.931-4.279 27.063-11.447 7.095-7.205 11.008-16.896 10.862-26.953v-384c0.146-10.057-3.767-19.749-10.898-26.953-6.923-6.969-16.473-11.322-27.039-11.447h-606.707c-10.59 0.125-20.14 4.477-27.061 11.445l-0.002 0.002c-6.738 6.792-10.901 16.147-10.901 26.473 0 0.169 0.001 0.337 0.003 0.505v-0.025 384c-0.146 10.057 3.767 19.749 10.898 26.953 7.095 7.168 16.823 11.337 27.063 11.447h37.815v38.4c-2.011 146.359 116.809 266.679 265.509 268.8 148.699-2.121 267.52-122.441 265.472-268.8v-38.4zM246.491 448v-307.2h531.017v307.2h-531.017zM474.075 371.2h75.886v-153.6h-75.922l0.037 153.6zM701.659 524.8v38.4c1.463 104.594-83.456 190.537-189.696 192-106.203-1.499-191.086-87.442-189.623-192v-38.4h379.319z" />
<glyph unicode="&#xe960;" glyph-name="man" d="M795.189 783.083h-112.523c-17.673 0-32 14.327-32 32s14.327 32 32 32v0h192c17.673 0 32-14.327 32-32v0-192c0-17.673-14.327-32-32-32s-32 14.327-32 32v0 116.971l-105.867-105.867c52.537-60.95 84.534-140.9 84.534-228.323 0-0.187 0-0.373 0-0.56v0.029c0-194.4-157.6-352-352-352s-352 157.6-352 352 157.6 352 352 352c0.154 0 0.337 0 0.52 0 84.109 0 161.299-29.623 221.706-79.004l-0.627 0.497 104.256 104.256zM469.333 117.333c159.061 0 288 128.939 288 288s-128.939 288-288 288-288-128.939-288-288 128.939-288 288-288z" />
<glyph unicode="&#xe961;" glyph-name="mark" d="M255.872 448h597.589v384h-597.589v-384zM256 362.667v-384h-85.333v938.667h768v-554.667h-682.667z" />
<glyph unicode="&#xe962;" glyph-name="markdown" d="M92 768c-49.76 0-92-40.128-92-90.016v-459.968c0-49.92 42.24-90.016 92-90.016h840c49.76 0 92 40.128 92 90.016v459.968c0 49.856-42.24 90.016-92 90.016zM92 704h840c16.512 0 28-12.256 28-26.016v-459.968c0-13.76-11.52-26.016-28-26.016h-840c-16.512 0-28 12.256-28 26.016v459.968c0 13.76 11.52 25.984 28 25.984zM160 608v-320h96v212.992l96-127.008 96 127.040v-213.024h96v320h-96l-96-128-96 128zM704 608v-160h-96l144-160 144 160h-96v160z" />
</font>
</defs>
</svg>
